<svg width="750" height="493" viewBox="0 0 750 493" fill="none" xmlns="http://www.w3.org/2000/svg">
<path d="M76.69 132.25C76.69 132.25 65.05 136.66 77.8 161.45C90.55 186.24 99.38 198.5 99.38 198.5C99.38 198.5 101.64 204.26 96.79 205.17C91.94 206.08 81.25 204.41 79.11 210.36C76.89 216.53 81.38 222.36 90.47 227.36C99.56 232.36 119.06 244.25 120.82 245.36C122.58 246.47 124.28 249.09 121.08 250.24C117.88 251.39 93.85 254 95.76 265.31C97.67 276.62 125.31 286.59 128.31 287.73C131.31 288.87 132.03 290.15 131.79 291.79C131.55 293.43 123.39 293.55 116.59 294.57C109.79 295.59 102.08 297.95 103.73 304.4C105.38 310.85 121.73 324.33 161.49 328.09L180 328.62L190 313C209.41 278.15 207.58 257 203.2 252C198.82 247 192.51 252 187.82 257C183.13 262 178.41 268.69 176.92 268C175.43 267.31 174.79 265.95 175.55 262.83C176.31 259.71 183.76 231.29 175.55 223.3C167.34 215.31 151.55 233.64 148.79 235.63C146.03 237.62 144.79 234.63 144.91 232.63C145.03 230.63 146.32 207.8 147.3 197.44C148.28 187.08 146.04 180.09 139.7 178.44C133.59 176.84 128.91 186.59 125.41 190.07C121.91 193.55 118.41 188.42 118.41 188.42C118.41 188.42 113.3 174.21 100.1 149.65C86.9 125.09 76.44 132.42 76.44 132.42" fill="#F5F5F5"/>
<path d="M181 333C171.38 314.92 154.81 282.52 140.45 254.77C126.09 227.02 113 201.91 103.49 183.8C98.73 174.8 94.86 167.44 92.18 162.35C90.86 159.83 89.83 157.87 89.11 156.52C88.77 155.86 88.51 155.36 88.33 154.99C88.2378 154.821 88.1543 154.648 88.08 154.47C88.08 154.47 88.19 154.63 88.38 154.97L89.21 156.46L92.38 162.25C95.12 167.25 99.04 174.57 103.85 183.61C113.48 201.68 126.56 226.75 140.93 254.49C155.3 282.23 171.8 314.67 181.33 332.79" fill="#E0E0E0"/>
<path d="M94 213.29C94.4437 213.369 94.8789 213.489 95.3 213.65C96.12 213.91 97.3 214.32 98.74 214.84C101.63 215.9 105.59 217.45 109.93 219.24L121 223.87L124.36 225.25C124.785 225.389 125.194 225.574 125.58 225.8C125.138 225.74 124.704 225.626 124.29 225.46C123.47 225.2 122.29 224.78 120.85 224.25C117.97 223.17 114.03 221.56 109.69 219.77L98.57 215.22L95.2 213.86C94.7797 213.716 94.3771 213.525 94 213.29V213.29Z" fill="#E0E0E0"/>
<path d="M126.83 224.62C126.69 224.56 129.53 216.26 133.18 206.07C136.83 195.88 139.92 187.67 140.07 187.72C140.22 187.77 137.38 196.08 133.72 206.27C130.06 216.46 127 224.67 126.83 224.62Z" fill="#E0E0E0"/>
<path d="M147 268.22C147.206 267.809 147.457 267.424 147.75 267.07L149.94 264.07C151.77 261.53 154.3 258.01 156.94 254.02C159.58 250.03 161.87 246.35 163.5 243.67L165.43 240.49C165.648 240.088 165.903 239.706 166.19 239.35C166.056 239.79 165.865 240.21 165.62 240.6C165.22 241.38 164.62 242.5 163.85 243.87C162.31 246.61 160.08 250.34 157.42 254.34C154.76 258.34 152.19 261.83 150.26 264.34C149.26 265.57 148.5 266.57 147.93 267.24C147.656 267.599 147.344 267.928 147 268.22V268.22Z" fill="#E0E0E0"/>
<path d="M115 264.52C115.418 264.466 115.842 264.466 116.26 264.52L119.69 264.78C122.58 265.03 126.57 265.41 130.97 265.86C135.37 266.31 139.36 266.75 142.24 267.1L145.65 267.54C146.071 267.572 146.487 267.652 146.89 267.78C146.471 267.828 146.049 267.828 145.63 267.78L142.2 267.52C139.31 267.27 135.32 266.89 130.91 266.44C126.5 265.99 122.53 265.55 119.65 265.2L116.24 264.76C115.819 264.73 115.402 264.649 115 264.52V264.52Z" fill="#E0E0E0"/>
<path d="M127.89 305.26C128.426 305.212 128.964 305.212 129.5 305.26L133.9 305.58C137.6 305.87 142.72 306.32 148.37 306.84C154.02 307.36 159.13 307.84 162.83 308.27L167.21 308.77C167.75 308.808 168.286 308.895 168.81 309.03C168.271 309.082 167.729 309.082 167.19 309.03L162.79 308.71C159.09 308.42 153.97 307.97 148.32 307.44C142.67 306.91 137.56 306.44 133.86 306.01L129.48 305.52C128.943 305.482 128.411 305.395 127.89 305.26V305.26Z" fill="#E0E0E0"/>
<path d="M167.85 308.71C168.112 308.193 168.417 307.698 168.76 307.23L171.39 303.32C173.61 300.01 176.66 295.43 179.88 290.32C183.1 285.21 185.88 280.44 187.88 277C188.88 275.35 189.64 274 190.26 272.92C190.525 272.408 190.833 271.92 191.18 271.46C190.99 272.007 190.746 272.533 190.45 273.03C189.95 274.03 189.2 275.45 188.24 277.2C186.32 280.69 183.58 285.47 180.34 290.63C177.1 295.79 174.01 300.34 171.71 303.63C170.55 305.25 169.6 306.55 168.93 307.44C168.606 307.893 168.245 308.318 167.85 308.71Z" fill="#E0E0E0"/>
<path d="M523.71 366.82C497.03 349.39 490.05 315.71 490.14 285.24C490.14 280.16 489.43 274.82 491.7 270.29C493.97 265.76 499.53 262.53 504.14 264.53C507.97 266.19 509.75 270.53 511.98 274.09C514.948 278.843 519.202 282.657 524.25 285.09C527.53 286.67 531.57 287.57 534.71 285.71C539.01 283.16 539.34 277.09 539.15 272.03L538.15 243.79C537.96 238.73 537.78 233.58 539.21 228.73C540.64 223.88 543.96 219.32 548.73 217.83C553.5 216.34 559.52 218.92 560.73 223.83C561.22 225.83 560.87 228.03 561.07 230.12C561.27 232.21 562.33 234.5 564.34 235.03C566.35 235.56 568.34 234.03 569.81 232.53C574.87 227.27 578.2 220.59 581.31 213.95C584.42 207.31 587.42 200.52 591.97 194.81C596.52 189.1 602.97 184.48 610.17 183.81C617.37 183.14 625.24 187.4 627.29 194.44C629.34 201.48 625.41 208.87 621.07 214.78C614.625 223.54 606.949 231.323 598.28 237.89C596.72 239.07 595.04 240.35 594.49 242.24C593.49 245.64 596.79 248.89 600.15 249.89C603.95 251.03 608.03 250.51 611.98 250.89C615.93 251.27 620.26 252.89 621.87 256.52C624.1 261.62 619.95 267.16 615.81 270.84C607.515 278.21 598.013 284.096 587.72 288.24C584.05 289.71 580.17 291.03 577.26 293.73C574.35 296.43 572.67 301.04 574.6 304.54C576.53 308.04 581.2 309.04 585.07 308.2C588.94 307.36 592.36 305.13 596.07 303.62C602.93 300.78 611.91 300.98 616.55 306.84C619.6 310.7 620.02 316.18 618.69 320.93C617.36 325.68 614.49 329.82 611.42 333.65C600.7 347.06 586.78 358.01 570.84 364.1C554.9 370.19 540.03 372.16 523.84 366.81" fill="#F5F5F5"/>
<path d="M531 347.49C535 331.99 540.8 315.37 547.46 298.19C549.14 293.897 550.807 289.66 552.46 285.48C554.11 281.32 555.74 277.19 557.58 273.24C561.134 265.693 565.103 258.348 569.47 251.24C573.59 244.41 577.75 238.08 581.68 232.24C585.61 226.4 589.41 220.94 593.07 216.15C598.803 208.564 605.13 201.445 611.99 194.86C614.42 192.53 616.35 190.79 617.68 189.62L619.2 188.3C619.368 188.146 619.549 188.005 619.74 187.88C619.597 188.059 619.44 188.226 619.27 188.38L617.81 189.76C616.52 190.97 614.62 192.76 612.24 195.13C605.495 201.796 599.261 208.959 593.59 216.56C589.98 221.36 586.23 226.78 582.32 232.68C578.41 238.58 574.32 244.92 570.2 251.74C565.872 258.855 561.933 266.199 558.4 273.74C556.58 277.66 554.97 281.74 553.32 285.93C551.67 290.12 550.03 294.34 548.32 298.63C541.67 315.8 535.86 332.37 531.83 347.81" fill="#E0E0E0"/>
<path d="M557.78 273.2C557.523 272.507 557.335 271.79 557.22 271.06C556.91 269.67 556.53 267.65 556.1 265.14C555.23 260.14 554.26 253.14 553.23 245.5C552.2 237.86 551.13 230.9 550.18 225.92C549.72 223.42 549.32 221.41 549.03 220.02C548.826 219.31 548.708 218.578 548.68 217.84C548.985 218.514 549.22 219.218 549.38 219.94C549.78 221.3 550.28 223.3 550.82 225.78C551.94 230.78 553.11 237.69 554.15 245.37C555.19 253.05 556.06 259.8 556.75 265.04C557.083 267.413 557.36 269.413 557.58 271.04C557.729 271.75 557.796 272.475 557.78 273.2V273.2Z" fill="#E0E0E0"/>
<path d="M622.37 259C621.524 259.207 620.66 259.338 619.79 259.39C618.13 259.59 615.72 259.87 612.79 260.3C606.86 261.13 598.71 262.56 589.79 264.53C580.87 266.5 572.87 268.66 567.13 270.38C564.25 271.22 561.94 271.96 560.34 272.46C559.524 272.773 558.68 273.008 557.82 273.16C558.587 272.739 559.39 272.388 560.22 272.11C561.79 271.5 564.07 270.66 566.93 269.74C572.64 267.86 580.64 265.61 589.59 263.61C597.227 261.886 604.947 260.55 612.72 259.61C615.72 259.26 618.12 259.08 619.8 258.99C620.655 258.913 621.516 258.916 622.37 259V259Z" fill="#E0E0E0"/>
<path d="M531.73 346.27C531.535 346.035 531.376 345.772 531.26 345.49L530.08 343.18C529.08 341.18 527.66 338.18 525.98 334.53C522.61 327.19 518.28 316.9 513.66 305.53C509.04 294.16 504.8 283.78 501.59 276.38L497.77 267.62L496.77 265.23C496.634 264.957 496.534 264.668 496.47 264.37C496.665 264.605 496.824 264.868 496.94 265.15C497.26 265.77 497.65 266.54 498.13 267.46C499.13 269.46 500.54 272.46 502.22 276.1C505.59 283.45 509.92 293.74 514.55 305.17C519.18 316.6 523.4 326.91 526.61 334.31L530.4 343L531.4 345.39C531.554 345.665 531.665 345.962 531.73 346.27V346.27Z" fill="#E0E0E0"/>
<path d="M617.19 315.76C616.928 315.923 616.645 316.051 616.35 316.14L613.87 317.06L604.72 320.34C596.99 323.12 586.36 327.07 574.62 331.46C562.88 335.85 552.21 339.71 544.42 342.32C540.53 343.63 537.42 344.66 535.17 345.32L532.63 346.07C532.34 346.176 532.037 346.243 531.73 346.27C531.995 346.106 532.281 345.978 532.58 345.89L535.06 344.97L544.21 341.69C551.93 338.92 562.56 334.96 574.3 330.58C586.04 326.2 596.72 322.33 604.5 319.72C608.39 318.41 611.5 317.38 613.75 316.72L616.29 315.97C616.579 315.861 616.882 315.79 617.19 315.76V315.76Z" fill="#E0E0E0"/>
<path d="M151.6 90.55C152.4 84.69 144.14 79.87 137.92 79.37C134.92 79.13 131.92 79.59 129.08 78.61C123 76.49 120.57 68.61 114.64 66.13C110.2 64.26 105.09 65.93 100.79 68.13C96.49 70.33 92.24 73 87.44 73.28C83.26 73.55 78.72 72 75.06 74.04C72.34 75.57 70.91 78.7 68.4 80.56C65.89 82.42 62.74 82.75 59.69 82.92C56.64 83.09 53.49 83.11 50.69 84.39C47.89 85.67 45.62 88.59 46.2 91.59L151.6 90.55Z" fill="#EBEBEB"/>
<path d="M564.83 144.22C565.67 138.16 557.11 133.22 550.68 132.66C547.62 132.41 544.43 132.88 541.53 131.87C535.24 129.67 532.73 121.55 526.59 118.96C522 117.02 516.71 118.74 512.26 120.96C507.81 123.18 503.42 126.02 498.44 126.34C494.12 126.62 489.44 125.01 485.64 127.13C482.82 128.7 481.35 131.95 478.75 133.86C476.15 135.77 472.89 136.14 469.75 136.31C466.61 136.48 463.33 136.51 460.45 137.83C457.57 139.15 455.21 142.18 455.8 145.28L564.83 144.22Z" fill="#F5F5F5"/>
<path d="M693.15 170.83C693.66 167.1 688.4 164.03 684.44 163.71C682.55 163.56 680.59 163.85 678.8 163.22C674.93 161.87 673.38 156.87 669.6 155.27C666.78 154.08 663.52 155.14 660.78 156.52C658.04 157.9 655.34 159.64 652.27 159.83C649.61 160 646.72 159.01 644.39 160.32C642.66 161.32 641.75 163.32 640.15 164.46C638.488 165.499 636.56 166.034 634.6 166C632.652 165.946 630.711 166.262 628.88 166.93C627.11 167.74 625.64 169.61 626.01 171.52L693.15 170.83Z" fill="#F5F5F5"/>
<path d="M673.9 85.54C674.84 78.75 665.25 73.16 658.05 72.54C654.62 72.26 651.05 72.79 647.79 71.65C640.79 69.2 637.93 60.09 631.05 57.19C625.91 55.06 620 57 615 59.5C610 62 605.09 65.17 599.52 65.5C594.67 65.81 589.41 64.02 585.17 66.38C582.01 68.15 580.36 71.79 577.45 73.93C574.54 76.07 570.88 76.48 567.35 76.67C563.82 76.86 560.15 76.9 556.94 78.37C553.73 79.84 551.06 83.25 551.72 86.73L673.9 85.54Z" fill="#EBEBEB"/>
<path d="M279.69 110.48C282.44 109.3 285.38 111.81 286.88 114.4C288.38 116.99 289.59 120.12 292.33 121.32C294.46 122.25 296.91 121.72 299.24 121.81C306.39 122.09 311.93 128.26 315.14 134.66C317.14 138.66 318.6 143.25 317.27 147.5C316.1 151.24 312.95 154.02 309.67 156.16C303.079 160.57 295.265 162.788 287.34 162.5C283.401 162.32 279.541 161.335 275.997 159.605C272.454 157.875 269.304 155.436 266.74 152.44C262.89 147.72 260.84 141.75 259.95 135.73C259.06 129.71 259.26 123.59 259.46 117.51" fill="#263238"/>
<path d="M310.63 142C310.58 142 310.63 141.35 310.51 140.22C310.342 138.614 309.892 137.05 309.18 135.6C308.134 133.452 306.587 131.586 304.67 130.16C302.302 128.429 299.563 127.275 296.67 126.79C293.62 126.24 290.58 126.52 287.85 125.94C285.444 125.413 283.219 124.261 281.4 122.6C280.181 121.505 279.087 120.277 278.14 118.94C277.81 118.47 277.56 118.1 277.4 117.83C277.314 117.701 277.24 117.563 277.18 117.42C277.579 117.865 277.953 118.333 278.3 118.82C279.299 120.091 280.417 121.263 281.64 122.32C283.433 123.902 285.608 124.988 287.95 125.47C290.58 126.01 293.61 125.72 296.76 126.28C299.727 126.775 302.533 127.976 304.94 129.78C306.901 131.264 308.467 133.208 309.5 135.44C310.193 136.938 310.6 138.552 310.7 140.2C310.733 140.643 310.733 141.087 310.7 141.53C310.7 141.689 310.676 141.848 310.63 142V142Z" fill="#455A64"/>
<path d="M338.46 128.93L327.93 168.35L306.55 145.35C296.711 138.92 285.089 135.769 273.35 136.35V136.35L240.09 134.8L221.73 141.41C217.308 143.016 213.066 145.077 209.07 147.56L173.29 172.25C165.72 177.72 159.5 181.9 158.04 190.25C156.12 201.25 161.69 213.58 173.28 215.62L223.89 216.23L225.45 248.23L305 240.83L302.87 192.54C319.11 205.05 326.74 209.92 338.96 207.54C343.03 206.75 348.85 202.47 350.74 196.13C357.49 173.53 358.64 137.98 358.64 137.98L338.46 128.93ZM213.7 185.5L218.32 184.19L218.61 185.86L213.7 185.5Z" fill="#7E57C2"/>
<path d="M172.53 215.64H172.96H174.21H179.04L196.82 215.59H255.69L255.43 215.84C255.43 215.26 255.49 214.64 255.52 214.02C255.89 206.07 256.25 198.38 256.58 191.23L256.81 191.5C238.9 189.83 223.55 187.25 212.6 185.86C207.12 185.14 202.74 184.66 199.74 184.31L196.3 183.93L195.41 183.82L195.11 183.77H195.42L196.31 183.84L199.76 184.14C202.76 184.43 207.15 184.87 212.64 185.55C223.64 186.85 238.96 189.36 256.85 191H257.09V191.24C256.76 198.38 256.41 206.08 256.09 214.03C256.09 214.65 256.03 215.27 256 215.84V216.09H255.75L196.88 215.89L179 215.76L174.17 215.7H172.92C172.789 215.691 172.658 215.671 172.53 215.64V215.64Z" fill="#263238"/>
<path d="M173.55 181.45C173.798 181.277 174.071 181.142 174.36 181.05C175.121 180.739 175.903 180.482 176.7 180.28C182.026 178.917 187.662 179.484 192.61 181.88C193.352 182.234 194.068 182.641 194.75 183.1C195.015 183.249 195.257 183.434 195.47 183.65C195.41 183.73 194.34 183.03 192.47 182.21C187.538 180.054 182.052 179.504 176.79 180.64C174.78 181.07 173.58 181.54 173.55 181.45Z" fill="#263238"/>
<path d="M184.56 172.26C185.332 172.554 186.065 172.944 186.74 173.42C188.421 174.475 190.022 175.651 191.53 176.94C193.27 178.45 194.87 179.94 195.53 181.37C195.808 181.929 195.948 182.546 195.94 183.17C195.948 183.399 195.897 183.627 195.79 183.83C195.776 183.032 195.577 182.248 195.21 181.54C194.115 179.931 192.764 178.512 191.21 177.34C189.46 175.84 187.78 174.6 186.55 173.73C185.846 173.298 185.18 172.806 184.56 172.26V172.26Z" fill="#263238"/>
<path d="M219 186.05C218.616 185.033 218.315 183.986 218.1 182.92C217.6 180.98 216.94 178.29 216.1 175.35C215.26 172.41 214.44 169.77 213.75 167.89C213.06 166.01 212.6 164.89 212.67 164.83C212.858 165.059 213.01 165.315 213.12 165.59C213.38 166.09 213.71 166.83 214.12 167.76C215.098 170.193 215.932 172.68 216.62 175.21C217.43 178.21 218.03 180.88 218.44 182.84C218.714 183.893 218.901 184.967 219 186.05V186.05Z" fill="#263238"/>
<path d="M303.9 214.94C303.76 214.94 303.19 202.94 302.62 188.11C302.05 173.28 301.71 161.25 301.86 161.25C302.01 161.25 302.58 173.25 303.14 188.09C303.7 202.93 304.05 214.94 303.9 214.94Z" fill="#263238"/>
<g opacity="0.3">
<path opacity="0.3" d="M302.29 166.76C303.12 171.92 305.29 176.76 307.08 181.67C308.87 186.58 310.08 191.93 309.02 197.04L303.02 192.23" fill="black"/>
</g>
<path d="M333.15 189.53C332.963 189.302 332.808 189.05 332.69 188.78C332.42 188.28 332.08 187.54 331.69 186.61C329.623 181.749 328.376 176.579 328 171.31C327.93 170.31 327.91 169.48 327.92 168.92C327.905 168.611 327.932 168.302 328 168C328.193 169.071 328.323 170.153 328.39 171.24C328.946 176.449 330.159 181.566 332 186.47C332.72 188.35 333.22 189.49 333.15 189.53Z" fill="#263238"/>
<path opacity="0.3" d="M214.08 168.1L215.37 185.03L218.32 184.19L214.08 168.1Z" fill="black"/>
<path d="M300.47 168C300.378 167.978 300.29 167.941 300.21 167.89L299.46 167.53C298.506 167.073 297.52 166.685 296.51 166.37C292.794 165.192 288.836 164.992 285.02 165.79C282.404 166.373 279.903 167.387 277.62 168.79C275.13 170.25 272.62 172.11 269.9 173.92C267.079 175.91 263.931 177.392 260.6 178.3C257.002 179.199 253.259 179.352 249.6 178.75C247.748 178.424 245.931 177.929 244.17 177.27C242.469 176.602 240.838 175.768 239.3 174.78C237.825 173.811 236.451 172.695 235.2 171.45C234.019 170.252 232.92 168.976 231.91 167.63C229.91 165.01 228.24 162.4 226.52 160.06C224.984 157.853 223.187 155.838 221.17 154.06C219.491 152.625 217.598 151.461 215.56 150.61C214.018 149.971 212.377 149.602 210.71 149.52C209.287 149.489 207.868 149.691 206.51 150.12L206.77 150.01L207.55 149.74C207.9 149.63 208.35 149.55 208.87 149.44C209.483 149.355 210.101 149.314 210.72 149.32C212.414 149.352 214.087 149.691 215.66 150.32C217.746 151.156 219.687 152.317 221.41 153.76C223.469 155.526 225.299 157.542 226.86 159.76C228.61 162.09 230.3 164.7 232.29 167.28C233.293 168.607 234.382 169.866 235.55 171.05C236.773 172.263 238.113 173.351 239.55 174.3C241.061 175.265 242.662 176.082 244.33 176.74C246.06 177.39 247.848 177.873 249.67 178.18C253.265 178.778 256.944 178.631 260.48 177.75C263.762 176.863 266.865 175.411 269.65 173.46C272.38 171.68 274.88 169.83 277.42 168.36C279.748 166.945 282.297 165.931 284.96 165.36C288.835 164.58 292.847 164.839 296.59 166.11C297.598 166.45 298.577 166.868 299.52 167.36L300.24 167.77L300.47 168Z" fill="#FAFAFA"/>
<path d="M320 159.83C320.095 160.233 320.132 160.647 320.11 161.06C320.128 162.193 320.034 163.325 319.83 164.44C319.529 166.097 318.993 167.703 318.24 169.21C317.316 171.043 316.211 172.778 314.94 174.39C312.616 177.337 309.647 179.712 306.26 181.33C305.243 181.816 304.19 182.22 303.11 182.54C302.719 182.678 302.313 182.769 301.9 182.81C301.9 182.71 303.58 182.28 306.1 181C309.373 179.318 312.247 176.955 314.53 174.07C315.781 172.484 316.879 170.783 317.81 168.99C318.565 167.53 319.124 165.977 319.47 164.37C319.732 162.868 319.909 161.352 320 159.83V159.83Z" fill="#FAFAFA"/>
<path d="M332.1 207.56C332.1 207.56 331.96 207.51 331.72 207.35C331.372 207.135 331.038 206.898 330.72 206.64C329.5 205.693 328.419 204.579 327.51 203.33C324.558 199.136 322.982 194.129 323 189C323.104 183.924 323.977 178.894 325.59 174.08C326.16 172.22 326.67 170.74 327.03 169.72C327.199 169.183 327.406 168.658 327.65 168.15C327.55 168.703 327.409 169.248 327.23 169.78C326.9 170.91 326.46 172.39 325.94 174.18C324.446 178.983 323.631 183.971 323.52 189C323.497 194.036 324.98 198.964 327.78 203.15C329.011 204.811 330.464 206.295 332.1 207.56V207.56Z" fill="#FAFAFA"/>
<path d="M355.68 162.77C355.368 162.985 355.033 163.163 354.68 163.3C354.04 163.6 353.11 164.01 351.93 164.45C348.839 165.629 345.546 166.187 342.24 166.09C338.901 165.961 335.682 164.809 333.02 162.79C332.229 162.176 331.523 161.46 330.92 160.66C330.68 160.382 330.485 160.068 330.34 159.73C331.217 160.746 332.192 161.674 333.25 162.5C335.891 164.369 339.017 165.435 342.25 165.57C345.496 165.656 348.73 165.158 351.8 164.1C354.22 163.32 355.64 162.69 355.68 162.77Z" fill="#FAFAFA"/>
<path d="M206.89 184.85C206.8 184.85 206.4 183.29 205.47 180.85C203.043 174.421 199.182 168.631 194.18 163.92C192.27 162.12 190.97 161.13 191.02 161.06C191.379 161.222 191.715 161.431 192.02 161.68C192.869 162.302 193.684 162.969 194.46 163.68C199.658 168.297 203.577 174.176 205.84 180.75C206.186 181.734 206.479 182.735 206.72 183.75C206.82 184.109 206.877 184.478 206.89 184.85V184.85Z" fill="#FAFAFA"/>
<path d="M218.57 186.57C218.51 186.759 218.422 186.937 218.31 187.1C218.029 187.596 217.711 188.071 217.36 188.52C216.029 190.17 214.375 191.531 212.5 192.52C209.73 193.956 206.744 194.932 203.66 195.41C200.21 196 196.36 196.24 192.41 196.88C190.486 197.177 188.592 197.642 186.75 198.27C185.046 198.876 183.418 199.678 181.9 200.66C179.328 202.336 177.09 204.476 175.3 206.97C174.107 208.667 173.126 210.504 172.38 212.44C171.84 213.81 171.67 214.61 171.61 214.59C171.621 214.393 171.658 214.198 171.72 214.01C171.838 213.453 171.995 212.905 172.19 212.37C172.872 210.383 173.817 208.496 175 206.76C176.776 204.188 179.03 201.981 181.64 200.26C183.183 199.243 184.841 198.414 186.58 197.79C188.448 197.147 190.369 196.669 192.32 196.36C196.32 195.72 200.16 195.5 203.58 194.94C206.622 194.489 209.574 193.564 212.33 192.2C214.18 191.267 215.833 189.987 217.2 188.43C218.14 187.27 218.52 186.54 218.57 186.57Z" fill="#FAFAFA"/>
<path d="M239.92 189.32C240.079 189.637 240.197 189.973 240.27 190.32C240.532 191.232 240.729 192.161 240.86 193.1C241.055 194.498 241.139 195.909 241.11 197.32C241.041 200.786 240.29 204.204 238.9 207.38C238.339 208.674 237.67 209.918 236.9 211.1C236.387 211.899 235.819 212.661 235.2 213.38C234.75 213.88 234.5 214.15 234.47 214.12C234.44 214.09 235.36 212.94 236.59 210.91C237.297 209.714 237.922 208.471 238.46 207.19C239.1 205.621 239.612 204.002 239.99 202.35C240.343 200.687 240.557 198.998 240.63 197.3C240.685 195.915 240.638 194.528 240.49 193.15C240.23 190.77 239.82 189.34 239.92 189.32Z" fill="#FAFAFA"/>
<path d="M302.24 204.48C300.089 203.562 297.831 202.917 295.52 202.56C293.184 202.369 290.833 202.463 288.52 202.84C289.144 202.516 289.822 202.306 290.52 202.22C293.869 201.578 297.335 201.99 300.44 203.4C301.1 203.649 301.71 204.015 302.24 204.48V204.48Z" fill="#FAFAFA"/>
<path d="M348.88 104.12L338.82 129.1L357.75 137.58L362.61 116.34L348.88 104.12Z" fill="#FFBE9D"/>
<path d="M370.6 128.78L353.6 107.68C350.17 102.94 344.71 95.31 344.46 94.68C344.11 93.68 343.98 86.86 344.14 85.13C344.132 82.91 343.988 80.6925 343.71 78.49L329.71 83.8L326.72 73L324.8 73.6C324.8 73.6 319.73 82.37 321.3 87.36C322.87 92.35 329.5 94.61 331.14 95.62C332.78 96.63 339.01 99.31 346.04 109.92L347.17 111.56L350.02 115.68L363.02 134.38C363.377 134.91 363.838 135.363 364.375 135.71C364.912 136.057 365.513 136.292 366.143 136.4C366.773 136.508 367.419 136.488 368.041 136.339C368.663 136.191 369.248 135.918 369.762 135.537C370.275 135.157 370.706 134.676 371.028 134.123C371.351 133.571 371.558 132.96 371.637 132.325C371.716 131.691 371.666 131.047 371.49 130.432C371.313 129.818 371.014 129.246 370.61 128.75L370.6 128.78Z" fill="#455A64"/>
<path d="M337.21 80.91L333.55 70.59L334.87 70.16C334.87 70.16 341.33 74.16 342.72 78.82L337.21 80.91Z" fill="#455A64"/>
<path d="M333.3 94.54L333.46 94.47L333.9 94.27L335.55 93.53L341.55 90.81L341.4 90.72C341.365 91.3295 341.365 91.9405 341.4 92.55C341.411 93.2394 341.561 93.9195 341.84 94.55C342.53 95.73 343.37 96.89 344.23 98.13C345.96 100.58 347.88 103.24 349.91 106C350.202 106.329 350.402 106.729 350.49 107.16C350.537 107.47 350.508 107.787 350.406 108.084C350.303 108.381 350.131 108.649 349.903 108.865C349.676 109.081 349.399 109.238 349.097 109.325C348.796 109.411 348.477 109.423 348.17 109.36C347.784 109.272 347.434 109.066 347.17 108.77C346.92 108.46 346.67 108.09 346.42 107.77L344.95 105.77L339.88 98.93C339.525 98.4645 339.104 98.0535 338.63 97.71C338.19 97.38 337.76 97.1 337.36 96.83C336.55 96.31 335.83 95.89 335.24 95.56C334.65 95.23 334.18 94.98 333.87 94.81L333.5 94.63H333.37C333.37 94.63 333.37 94.63 333.49 94.7L333.84 94.91L335.18 95.7C335.77 96.05 336.47 96.48 337.27 97.01C337.67 97.28 338.1 97.57 338.52 97.9C338.983 98.2347 339.391 98.6396 339.73 99.1L344.73 105.97L346.19 107.97C346.44 108.31 346.67 108.64 346.95 108.97C347.265 109.309 347.677 109.543 348.13 109.64C348.48 109.713 348.843 109.701 349.187 109.603C349.532 109.506 349.847 109.327 350.108 109.082C350.368 108.836 350.565 108.531 350.682 108.193C350.799 107.855 350.833 107.494 350.78 107.14C350.684 106.666 350.467 106.225 350.15 105.86C348.15 103.1 346.15 100.45 344.45 98C343.6 96.77 342.74 95.6 342.07 94.46C341.81 93.8765 341.664 93.2485 341.64 92.61C341.6 92.0073 341.6 91.4027 341.64 90.8V90.63L341.49 90.7L335.49 93.56L333.89 94.34L333.48 94.54H333.3Z" fill="#263238"/>
<g opacity="0.3">
<path opacity="0.3" d="M332 89.51L338.29 87.18L338.25 83.66L331.9 86.08L332 89.51Z" fill="black"/>
</g>
<path d="M336.91 83.45C336.652 84.2908 336.567 85.1754 336.66 86.05C336.585 86.9247 336.687 87.8056 336.96 88.64C337.225 87.8006 337.31 86.9146 337.21 86.04C337.285 85.1653 337.183 84.2844 336.91 83.45V83.45Z" fill="#263238"/>
<path d="M335 84.15C334.743 84.9911 334.661 85.876 334.76 86.75C334.679 87.6248 334.781 88.5069 335.06 89.34C335.319 88.4992 335.401 87.6139 335.3 86.74C335.381 85.8652 335.279 84.9831 335 84.15Z" fill="#263238"/>
<path d="M333.18 84.6C332.92 85.4406 332.835 86.3254 332.93 87.2C332.855 88.0747 332.957 88.9556 333.23 89.79C333.488 88.9492 333.573 88.0647 333.48 87.19C333.555 86.3153 333.453 85.4344 333.18 84.6V84.6Z" fill="#263238"/>
<path d="M339.47 127.49L340.15 122.6L340.61 109.6L340.11 100.51C340.11 100.51 343.11 100.74 344.78 104.66C346.45 108.58 346.48 114.57 346.48 114.57C346.48 114.57 359.18 119.57 354.7 131.57" fill="#FFBE9D"/>
<path d="M356.66 107.66C356.774 106.647 356.572 105.623 356.08 104.73C355.752 104.26 355.333 103.861 354.846 103.559C354.36 103.256 353.816 103.056 353.25 102.97C352.226 102.77 351.174 102.77 350.15 102.97L352.54 106.3C352.057 108.305 351.703 110.339 351.48 112.39C351.35 113.44 351.36 114.75 352.27 115.29C352.665 115.467 353.106 115.51 353.528 115.415C353.95 115.319 354.33 115.09 354.61 114.76C355.146 114.07 355.515 113.266 355.69 112.41C356.19 110.868 356.515 109.275 356.66 107.66Z" fill="#FFBE9D"/>
<path d="M360.25 111.51C360.355 110.497 360.153 109.476 359.67 108.58C359.341 108.109 358.92 107.71 358.432 107.407C357.943 107.104 357.398 106.905 356.83 106.82C355.81 106.619 354.76 106.619 353.74 106.82L356.12 110.15C355.641 112.156 355.287 114.19 355.06 116.24C354.94 117.24 354.94 118.6 355.86 119.14C356.255 119.317 356.696 119.36 357.118 119.265C357.54 119.169 357.92 118.94 358.2 118.61C358.733 117.919 359.099 117.115 359.27 116.26C359.773 114.718 360.102 113.125 360.25 111.51V111.51Z" fill="#FFBE9D"/>
<path d="M364 115.31C364.112 114.294 363.909 113.268 363.42 112.37C363.092 111.9 362.673 111.501 362.186 111.199C361.7 110.896 361.156 110.696 360.59 110.61C359.565 110.42 358.515 110.42 357.49 110.61L359.88 113.94C359.397 115.945 359.043 117.979 358.82 120.03C358.69 121.09 358.7 122.39 359.61 122.94C360.006 123.115 360.448 123.158 360.87 123.06C361.292 122.963 361.671 122.731 361.95 122.4C362.48 121.691 362.839 120.87 363 120C363.506 118.478 363.841 116.905 364 115.31Z" fill="#FFBE9D"/>
<path d="M356.4 105.31C356.822 106.753 356.888 108.276 356.59 109.75C356.462 111.246 355.979 112.689 355.18 113.96C355.03 113.9 355.75 112.06 356.08 109.67C356.41 107.28 356.25 105.33 356.4 105.31Z" fill="#EB996E"/>
<path d="M360.24 110.53C360.52 111.82 360.523 113.154 360.249 114.446C359.975 115.737 359.43 116.955 358.65 118.02C358.51 117.94 359.32 116.4 359.74 114.34C360.16 112.28 360.08 110.54 360.24 110.53Z" fill="#EB996E"/>
<path d="M345 105.31C345.251 106.168 345.435 107.044 345.55 107.93C345.84 109.58 346.23 111.93 346.67 114.7L346.51 114.5C348.389 115.151 350.103 116.204 351.533 117.586C352.963 118.967 354.075 120.645 354.79 122.5C355.4 124.026 355.738 125.647 355.79 127.29C355.819 128.392 355.715 129.493 355.48 130.57C355.425 130.971 355.31 131.362 355.14 131.73C355.354 130.267 355.448 128.789 355.42 127.31C355.32 125.717 354.955 124.153 354.34 122.68C353.609 120.871 352.497 119.241 351.08 117.9C349.723 116.605 348.108 115.61 346.34 114.98H346.2V114.84C345.8 112.07 345.48 109.71 345.27 108.04C345.115 107.138 345.024 106.225 345 105.31V105.31Z" fill="#EB996E"/>
<path d="M343.68 78.46L343.46 78.55L342.82 78.79L340.46 79.67L332.7 82.67L324.95 85.67L322.59 86.55L321.94 86.78C321.8 86.84 321.72 86.86 321.72 86.85L321.93 86.75L322.56 86.48L324.89 85.48C326.89 84.69 329.6 83.61 332.62 82.48C335.64 81.35 338.4 80.29 340.41 79.58C341.41 79.23 342.22 78.95 342.79 78.77L343.44 78.56C343.514 78.5136 343.595 78.4798 343.68 78.46V78.46Z" fill="#263238"/>
<path d="M256.83 194.82C256.83 194.82 269.29 191.41 271.42 191.33C273.05 191.28 282.5 192.88 286.85 193.63C287.665 193.752 288.4 194.187 288.899 194.842C289.397 195.498 289.62 196.322 289.52 197.14C289.499 197.241 289.473 197.342 289.44 197.44C289.251 197.94 288.926 198.377 288.502 198.702C288.078 199.027 287.572 199.227 287.04 199.28C287.668 199.592 288.182 200.095 288.509 200.716C288.836 201.337 288.959 202.045 288.86 202.74C288.52 205.2 285.47 205.27 285.47 205.27C285.47 205.27 285.62 205.43 285.83 205.71C286.132 206.141 286.315 206.644 286.362 207.168C286.408 207.692 286.316 208.22 286.094 208.697C285.872 209.174 285.528 209.584 285.098 209.887C284.667 210.189 284.164 210.373 283.64 210.42L282.25 210.52C282.714 210.799 283.092 211.2 283.343 211.68C283.594 212.16 283.707 212.7 283.67 213.24C283.13 216.47 275.75 215.98 275.75 215.98L255.93 215.6L256.83 194.82Z" fill="#FFBE9D"/>
<path d="M285.76 189.55C285.52 190.55 284.92 192.84 282.95 193.55L272.95 191.63C272.95 191.63 280.82 190.19 282.07 189.07C282.573 188.615 283.126 188.219 283.72 187.89C283.968 187.764 284.248 187.714 284.524 187.743C284.801 187.773 285.063 187.883 285.279 188.058C285.494 188.234 285.655 188.468 285.74 188.733C285.825 188.998 285.832 189.281 285.76 189.55Z" fill="#FFBE9D"/>
<path d="M277.71 192.29C277.71 192.46 279.71 192.97 282.24 193.29C284.77 193.61 286.83 193.85 286.86 193.66C286.89 193.47 284.86 192.98 282.33 192.66C279.8 192.34 277.74 192.11 277.71 192.29Z" fill="#EB996E"/>
<path d="M279.11 198.23C279.11 198.4 280.79 198.98 283 199.23C285.21 199.48 287 199.32 287 199.14C287 198.96 285.23 198.83 283.06 198.58C280.89 198.33 279.15 198.05 279.11 198.23Z" fill="#EB996E"/>
<path d="M274.11 196.74C273.95 196.81 274.06 197.39 274.57 197.84C275.08 198.29 275.66 198.33 275.71 198.16C275.76 197.99 275.4 197.7 275.01 197.35C274.62 197 274.28 196.66 274.11 196.74Z" fill="#EB996E"/>
<path d="M277 204.42C277 204.6 278.91 204.98 281.29 205.26C283.67 205.54 285.64 205.63 285.67 205.45C285.7 205.27 283.77 204.9 281.37 204.61C278.97 204.32 277.05 204.24 277 204.42Z" fill="#EB996E"/>
<path d="M271.71 200.87C271.63 200.87 271.45 201.01 271.34 201.4C271.211 201.918 271.286 202.466 271.55 202.93C271.811 203.406 272.244 203.764 272.76 203.93C273.14 204.03 273.39 203.93 273.4 203.88C273.41 203.83 272.58 203.46 272.12 202.63C271.66 201.8 271.88 200.93 271.71 200.87Z" fill="#EB996E"/>
<path d="M274.57 210.41C274.57 210.59 276.33 210.79 278.5 210.85C280.67 210.91 282.44 210.85 282.44 210.64C282.44 210.43 280.69 210.26 278.52 210.2C276.35 210.14 274.58 210.23 274.57 210.41Z" fill="#EB996E"/>
<path d="M269.46 206.4C269.38 206.4 269.22 206.57 269.17 206.96C269.132 207.465 269.247 207.971 269.5 208.41C270.1 209.41 270.88 209.86 270.99 209.75C271.1 209.64 270.57 208.93 270.07 208.09C269.57 207.25 269.62 206.45 269.46 206.4Z" fill="#EB996E"/>
<path d="M217.87 96.29C217.47 93.08 213.95 90.83 210.76 91.29C209.174 91.6129 207.711 92.3746 206.537 93.4885C205.363 94.6023 204.526 96.0234 204.12 97.59C203.344 100.75 203.697 104.083 205.12 107.01C206.12 109.33 207.88 111.62 210.37 112.13C211.527 112.283 212.704 112.136 213.788 111.704C214.872 111.271 215.826 110.568 216.56 109.66C218.009 107.828 219.126 105.757 219.86 103.54L217.87 96.29Z" fill="#263238"/>
<path d="M221.93 95.59C221.399 95.3093 220.786 95.2266 220.199 95.3567C219.613 95.4868 219.092 95.8212 218.73 96.3C218.033 97.2817 217.681 98.467 217.73 99.67C217.673 101.665 218.056 103.649 218.85 105.48C218.934 105.768 219.08 106.034 219.277 106.26C219.474 106.486 219.717 106.667 219.99 106.79C220.27 106.853 220.563 106.834 220.833 106.735C221.102 106.635 221.338 106.46 221.51 106.23C221.853 105.766 222.083 105.229 222.18 104.66C222.98 101.319 222.81 97.8182 221.69 94.57" fill="#7E57C2"/>
<path d="M278.59 80.15C284.21 77.4 287.44 74.55 286.97 72.22C286.5 69.89 275.19 66.28 272.54 65.3C266.29 62.98 260.38 68.5 250.54 70.48C231.37 74.33 216.61 81.35 217.54 86.16C218 88.48 222.04 89.86 228.24 90.24" fill="#7E57C2"/>
<g opacity="0.4">
<path opacity="0.4" d="M275.24 80.65C280.24 78.21 283.24 75.65 282.67 73.65C281.15 67.99 267.35 68.65 250.35 72.11C233.35 75.57 220.28 81.71 221.14 86C221.55 88.06 225.14 89.28 230.62 89.62" fill="black"/>
</g>
<path d="M230.65 87.82C230.088 84.6635 230.164 81.4263 230.874 78.2997C231.584 75.1731 232.913 72.2205 234.783 69.616C236.653 67.0116 239.026 64.8083 241.761 63.1361C244.497 61.4639 247.539 60.3567 250.71 59.88C263.4 57.99 275.23 66.88 277.82 79.43C280.09 90.43 282.13 101.58 282.3 105.65C282.8 117.93 275.87 123.09 273.04 124.65C272.015 125.094 270.945 125.43 269.85 125.65C269.839 125.652 269.829 125.657 269.82 125.663C269.811 125.67 269.804 125.678 269.798 125.687C269.793 125.696 269.789 125.707 269.788 125.718C269.786 125.728 269.787 125.739 269.79 125.75L273.27 139.69C275 148.86 270.27 157.36 261.14 159.2C252.01 161.04 244.36 154.34 242.45 145.2L230.65 87.82Z" fill="#FFBE9D"/>
<path d="M274.07 87.08C274.165 87.5784 274.067 88.0943 273.796 88.5232C273.525 88.9521 273.101 89.262 272.61 89.39C272.37 89.4579 272.119 89.4773 271.872 89.4469C271.625 89.4165 271.386 89.3371 271.17 89.2132C270.954 89.0893 270.765 88.9234 270.614 88.7254C270.463 88.5274 270.352 88.3012 270.29 88.06C270.195 87.5616 270.293 87.0457 270.564 86.6168C270.835 86.1879 271.259 85.878 271.75 85.75C271.99 85.6821 272.24 85.6627 272.488 85.6931C272.735 85.7235 272.974 85.803 273.19 85.9268C273.406 86.0507 273.595 86.2166 273.746 86.4146C273.897 86.6126 274.007 86.8389 274.07 87.08V87.08Z" fill="#263238"/>
<path d="M275.17 82.92C274.98 83.21 273.31 82.43 271.25 82.85C269.19 83.27 267.89 84.6 267.62 84.4C267.35 84.2 267.62 83.81 268.2 83.2C268.965 82.3981 269.961 81.8561 271.05 81.65C272.121 81.43 273.235 81.556 274.23 82.01C275 82.37 275.26 82.78 275.17 82.92Z" fill="#263238"/>
<path d="M253.81 91.15C253.905 91.6484 253.807 92.1643 253.536 92.5932C253.265 93.0222 252.841 93.332 252.35 93.46C252.108 93.5311 251.855 93.5529 251.605 93.5241C251.354 93.4954 251.113 93.4166 250.893 93.2926C250.674 93.1685 250.482 93.0017 250.329 92.802C250.175 92.6023 250.063 92.3737 250 92.13C249.905 91.6316 250.003 91.1157 250.274 90.6868C250.545 90.2579 250.969 89.948 251.46 89.82C251.702 89.7475 251.955 89.7246 252.206 89.7527C252.457 89.7808 252.699 89.8593 252.919 89.9836C253.138 90.1078 253.33 90.2752 253.484 90.4757C253.637 90.6761 253.748 90.9055 253.81 91.15V91.15Z" fill="#263238"/>
<path d="M255 87.37C254.82 87.67 253.15 86.89 251.09 87.3C249.03 87.71 247.73 89.06 247.45 88.85C247.32 88.76 247.45 88.26 248.03 87.65C248.801 86.856 249.795 86.3154 250.88 86.1C251.952 85.8824 253.066 86.012 254.06 86.47C254.77 86.83 255.08 87.23 255 87.37Z" fill="#263238"/>
<path d="M265.54 101.15C266.557 100.595 267.638 100.169 268.76 99.88C269.28 99.72 269.76 99.51 269.76 99.14C269.696 98.5881 269.465 98.0686 269.1 97.65L266.73 93.95C263.43 88.68 260.92 84.3 261.13 84.17C261.34 84.04 264.2 88.17 267.51 93.48L269.81 97.21C270.267 97.7756 270.511 98.4832 270.5 99.21C270.463 99.411 270.379 99.6005 270.256 99.7636C270.132 99.9267 269.973 100.059 269.79 100.15C269.515 100.292 269.223 100.397 268.92 100.46C267.828 100.835 266.692 101.067 265.54 101.15V101.15Z" fill="#263238"/>
<path d="M269.77 125.68C269.77 125.68 261.94 127.93 250.77 123.94C250.77 123.94 256.03 133.83 270.69 129.43L269.77 125.68Z" fill="#EB996E"/>
<path d="M265.66 106.3C265.168 105.885 264.579 105.602 263.947 105.478C263.315 105.353 262.663 105.392 262.05 105.59C261.605 105.721 261.191 105.941 260.834 106.237C260.476 106.532 260.182 106.898 259.97 107.31C259.76 107.708 259.679 108.161 259.738 108.608C259.797 109.054 259.994 109.47 260.3 109.8C260.703 110.104 261.189 110.28 261.693 110.305C262.198 110.33 262.699 110.203 263.13 109.94C264.038 109.405 264.828 108.691 265.45 107.84C265.654 107.631 265.814 107.382 265.92 107.11C265.971 106.982 265.984 106.841 265.955 106.706C265.927 106.571 265.859 106.447 265.76 106.35" fill="#EB996E"/>
<path d="M259.76 103.8C260.09 103.71 260.54 105.95 262.76 107.15C264.98 108.35 267.33 107.63 267.41 107.94C267.47 108.07 266.97 108.48 265.97 108.71C264.661 108.993 263.294 108.805 262.11 108.18C260.978 107.575 260.123 106.558 259.72 105.34C259.46 104.42 259.6 103.82 259.76 103.8Z" fill="#263238"/>
<path d="M254.45 80.72C254.36 81.32 252.25 81.47 249.89 82.25C247.53 83.03 245.7 84.08 245.28 83.64C245.09 83.43 245.33 82.83 246.01 82.13C246.929 81.2484 248.038 80.5897 249.251 80.2048C250.465 79.8199 251.751 79.719 253.01 79.91C254 80.09 254.48 80.44 254.45 80.72Z" fill="#263238"/>
<path d="M273.35 77.76C273.08 78.3 271.56 78.1 269.85 78.42C268.14 78.74 266.76 79.42 266.32 78.94C266.13 78.73 266.26 78.22 266.81 77.65C267.546 76.9405 268.476 76.4664 269.482 76.2883C270.489 76.1101 271.526 76.2361 272.46 76.65C273.16 77.05 273.46 77.5 273.35 77.76Z" fill="#263238"/>
<path d="M259.63 68.1C258.85 69.9151 257.678 71.5352 256.198 72.844C254.718 74.1528 252.967 75.1178 251.07 75.67C248.58 76.38 245.62 76.51 244.07 78.56C242.92 80.06 242.92 82.1 242.66 83.97C242.25 86.82 242.97 90.1 240.8 91.97C239.1 93.44 237.5 93.4 236.46 95.39C235.42 97.38 235.62 100.19 236.05 102.52C236.48 104.85 237.05 108.52 235.14 110C233.36 101.56 228.8 92.53 227.03 84.09C226.685 82.8479 226.577 81.5521 226.71 80.27C227.21 77.41 229.95 75.55 232.54 74.27C239.89 70.59 247.99 68.7 255.99 66.84" fill="#263238"/>
<path d="M281.74 70.92C281.74 70.92 272.68 51.51 272.05 50.6C271.42 49.69 263.82 41.93 249.41 42.16L237.92 44.47C237.92 44.47 222.66 53 220.48 57.56C218.3 62.12 220.9 81.68 220.9 81.68L251.71 68.21L274.71 69.15L281.74 70.92Z" fill="#7E57C2"/>
<path d="M245.18 40.58L248.35 39.94C248.984 39.8088 249.642 39.8669 250.243 40.1069C250.844 40.3469 251.361 40.7584 251.73 41.29C252.359 42.2358 252.826 43.2802 253.11 44.38C254.06 47.91 259.79 72.25 259.79 72.25L245.25 74.48L239.64 44.13L235 46.19L234.91 45.29C234.85 44.7441 234.958 44.1929 235.22 43.71V43.71C235.402 43.3782 235.654 43.0895 235.957 42.8635C236.261 42.6375 236.61 42.4794 236.98 42.4L245.18 40.58Z" fill="#7E57C2"/>
<path d="M278.11 73.77L275.17 67L251.24 64.5L225.77 77.91L227.37 85.91C227.37 85.91 248.32 72.2 278.11 73.77Z" fill="#455A64"/>
<path d="M272.54 65.3L273.68 66.03L282.42 70.18C282.42 70.18 266.63 68.18 251.16 71.44C235.69 74.7 219 83.52 219 83.52L228 75.28C229.271 73.2275 230.939 71.45 232.908 70.0521C234.876 68.6541 237.104 67.664 239.46 67.14L258.85 62.85C261.18 62.33 263.591 62.2788 265.941 62.6994C268.291 63.12 270.535 64.0041 272.54 65.3V65.3Z" fill="#7E57C2"/>
<path d="M280.26 70.91C280.26 70.91 280.08 70.77 279.69 70.58C279.128 70.2964 278.538 70.0719 277.93 69.91C275.697 69.3198 273.4 69.0041 271.09 68.97C263.49 68.8549 255.917 69.9141 248.64 72.11C244.38 73.29 240.29 74.33 236.64 75.62C233.439 76.7793 230.304 78.1146 227.25 79.62C225.95 80.27 224.8 80.93 223.82 81.55C222.92 82.0305 222.146 82.7155 221.56 83.55C221.208 84.1091 221.072 84.778 221.18 85.43C221.28 85.87 221.45 86.05 221.47 86.04C221.353 85.6515 221.326 85.2413 221.392 84.841C221.458 84.4406 221.615 84.0606 221.85 83.73C222.456 82.9948 223.217 82.4038 224.08 82C225.08 81.42 226.23 80.82 227.53 80.2C230.14 79 233.34 77.63 236.91 76.37C240.48 75.11 244.6 74.12 248.91 72.94C256.119 70.7827 263.596 69.6516 271.12 69.58C273.39 69.56 275.656 69.7779 277.88 70.23C279.42 70.57 280.21 71 280.26 70.91Z" fill="#263238"/>
<path d="M278 73.55C280.77 79.74 290.43 88.55 281.17 97.1C281.17 97.1 278.25 83.1 276.01 77.87C275.441 76.2848 274.525 74.8465 273.33 73.66" fill="#263238"/>
<path d="M230.51 85.13C227.354 85.7395 224.554 87.5416 222.691 90.1618C220.829 92.7819 220.048 96.0188 220.51 99.2C220.82 100.85 221.51 102.48 221.3 104.2C221.09 105.92 220.22 107.27 219.81 108.86C219 112 218.81 117.17 219.92 120.24C222.46 127.54 231.72 136.54 240.11 134.86" fill="#263238"/>
<path d="M236.72 128.81C237.593 128.978 238.494 128.932 239.346 128.676C240.197 128.42 240.974 127.961 241.61 127.34C242.859 126.07 243.752 124.494 244.2 122.77C244.987 120.023 245.102 117.127 244.534 114.327C243.967 111.527 242.734 108.904 240.94 106.68C243.027 102.909 244.149 98.68 244.204 94.3702C244.26 90.0605 243.249 85.8039 241.26 81.98L229.5 85.46L236.72 128.81Z" fill="#263238"/>
<path d="M218 103.48C217.526 104.18 216.887 104.754 216.14 105.15C214.379 106.243 212.296 106.698 210.24 106.44C208.179 106.207 206.264 105.258 204.83 103.76C204.198 103.174 203.791 102.385 203.68 101.53C204.057 102.257 204.532 102.93 205.09 103.53C206.528 104.866 208.352 105.713 210.3 105.95C212.252 106.18 214.227 105.796 215.95 104.85C217.27 104.11 217.93 103.41 218 103.48Z" fill="#455A64"/>
<path d="M217.1 101.9C216.473 102.297 215.766 102.55 215.03 102.64C213.261 102.99 211.432 102.884 209.716 102.331C207.999 101.778 206.452 100.797 205.22 99.48C204.679 98.9713 204.255 98.35 203.98 97.66C204.05 97.66 204.52 98.31 205.48 99.22C206.731 100.41 208.233 101.302 209.876 101.832C211.519 102.362 213.26 102.515 214.97 102.28C216.28 102.1 217.07 101.82 217.1 101.9Z" fill="#455A64"/>
<path d="M242.63 85.22C242.662 85.6147 242.638 86.0119 242.56 86.4C242.417 87.4727 242.166 88.5281 241.81 89.55C240.651 92.9666 238.475 95.9471 235.574 98.092C232.674 100.237 229.186 101.443 225.58 101.55C224.499 101.592 223.416 101.522 222.35 101.34C221.955 101.3 221.567 101.202 221.2 101.05C222.649 101.188 224.105 101.232 225.56 101.18C229.065 100.979 232.437 99.7624 235.262 97.6776C238.087 95.5928 240.244 92.7304 241.47 89.44C241.939 88.0572 242.326 86.6481 242.63 85.22V85.22Z" fill="#455A64"/>
<path d="M243 102.85C243 102.85 242.83 103.13 242.42 103.54C241.819 104.122 241.147 104.626 240.42 105.04C238.02 106.393 235.304 107.083 232.55 107.04C229.841 106.975 227.152 106.558 224.55 105.8C223.55 105.52 222.75 105.28 222.2 105.09C221.906 105.02 221.623 104.909 221.36 104.76C222.467 104.915 223.563 105.142 224.64 105.44C227.24 106.088 229.902 106.45 232.58 106.52C235.25 106.555 237.889 105.941 240.27 104.73C241.219 104.162 242.131 103.534 243 102.85V102.85Z" fill="#455A64"/>
<path d="M282.25 68.9C282.01 68.8603 281.775 68.7932 281.55 68.7L279.61 68L272.48 65.44L270.64 63.79C270.019 63.1715 269.327 62.6278 268.58 62.17C267.769 61.7207 266.873 61.4448 265.95 61.36C264.942 61.3243 263.934 61.4184 262.95 61.64C258.87 62.32 254.4 63.27 249.74 64.35C245.41 65.35 241.27 66.35 237.49 67.35C236.57 67.5349 235.688 67.8729 234.88 68.35C234.142 68.7929 233.503 69.3815 233 70.08C232.07 71.53 231.25 72.99 230.47 74.28L223.54 79.4L221.63 80.78C221.416 80.9488 221.189 81.0994 220.95 81.23C221.138 81.0301 221.346 80.8492 221.57 80.69L223.41 79.23L230.13 74V74.06C230.91 72.74 231.68 71.31 232.64 69.79C233.171 69.0276 233.851 68.3811 234.64 67.89C235.489 67.4084 236.411 67.0706 237.37 66.89C241.15 65.89 245.28 64.89 249.63 63.89C254.29 62.81 258.77 61.89 262.88 61.2C263.888 60.9821 264.92 60.898 265.95 60.95C266.935 61.0422 267.889 61.3421 268.75 61.83C269.522 62.3099 270.234 62.8806 270.87 63.53L272.68 65.2H272.62L279.7 67.91L281.61 68.67C281.828 68.7317 282.042 68.8086 282.25 68.9V68.9Z" fill="#263238"/>
<path d="M243.58 65.54C243.45 65.2181 243.356 64.8827 243.3 64.54C243.15 63.89 242.95 62.96 242.71 61.8C242.24 59.49 241.62 56.29 240.96 52.8C240.65 51.03 240.34 49.35 240.06 47.8C239.93 47.04 239.81 46.31 239.69 45.62C239.671 45.4883 239.624 45.3623 239.552 45.2503C239.48 45.1384 239.385 45.0432 239.273 44.9712C239.161 44.8991 239.035 44.8519 238.904 44.8328C238.772 44.8136 238.638 44.8229 238.51 44.86L235.94 45.86C235.626 46.0187 235.288 46.1267 234.94 46.18C235.219 45.9778 235.521 45.8099 235.84 45.68C236.44 45.38 237.27 44.97 238.38 44.47C238.558 44.4112 238.746 44.3909 238.933 44.4105C239.119 44.4301 239.299 44.4892 239.461 44.5838C239.623 44.6784 239.762 44.8063 239.871 44.9591C239.979 45.1119 240.054 45.2861 240.09 45.47C240.23 46.16 240.37 46.89 240.52 47.65C240.81 49.19 241.12 50.87 241.46 52.65C242.11 56.19 242.67 59.4 243.05 61.73C243.24 62.89 243.39 63.84 243.48 64.49C243.566 64.8329 243.6 65.187 243.58 65.54V65.54Z" fill="#263238"/>
<path d="M257.47 62.45C257.013 61.529 256.661 60.5596 256.42 59.56C255.87 57.74 255.24 55.2 254.57 52.39C253.9 49.58 253.33 47.02 252.94 45.17C252.679 44.1872 252.505 43.1833 252.42 42.17C252.798 43.1431 253.093 44.1468 253.3 45.17C253.78 47 254.41 49.54 255.08 52.35C255.75 55.16 256.31 57.55 256.78 59.55C257.067 60.5021 257.298 61.4705 257.47 62.45Z" fill="#263238"/>
<path d="M282 102.64C284.053 102.55 286.069 102.068 287.94 101.22C289.967 100.353 291.735 98.9748 293.07 97.22C293.803 96.098 294.293 94.8354 294.51 93.513C294.727 92.1905 294.666 90.8373 294.33 89.54C294.039 88.2291 293.49 86.9895 292.714 85.8939C291.938 84.7983 290.95 83.8688 289.81 83.16C287.818 82.1629 285.776 81.2717 283.69 80.49C282.277 79.8804 281.017 78.9651 280 77.81C279.735 77.5023 279.504 77.167 279.31 76.81C279.19 76.56 279.13 76.42 279.15 76.41C279.459 76.8648 279.793 77.3021 280.15 77.72C281.208 78.7771 282.47 79.6073 283.86 80.16C285.983 80.9024 288.06 81.7706 290.08 82.76C291.285 83.4909 292.329 84.459 293.149 85.6055C293.969 86.7521 294.548 88.0532 294.85 89.43C295.205 90.7972 295.267 92.2241 295.031 93.6168C294.795 95.0095 294.266 96.3364 293.48 97.51C292.087 99.3282 290.233 100.74 288.11 101.6C286.708 102.212 285.215 102.591 283.69 102.72C283.277 102.75 282.863 102.75 282.45 102.72C282.296 102.724 282.143 102.697 282 102.64V102.64Z" fill="#263238"/>
<path d="M207.15 98.66C207.15 98.66 207.06 98.66 206.92 98.49C206.718 98.3075 206.534 98.1066 206.37 97.89C205.777 97.0778 205.39 96.1343 205.24 95.14C204.996 93.6423 205.275 92.1063 206.03 90.79C206.532 90.0109 207.195 89.3477 207.973 88.8444C208.752 88.3412 209.629 88.0095 210.545 87.8714C211.462 87.7333 212.397 87.7919 213.29 88.0434C214.182 88.2949 215.01 88.7335 215.72 89.33C216.831 90.3599 217.555 91.7402 217.77 93.24C217.922 94.2472 217.829 95.2761 217.5 96.24C217.411 96.4958 217.294 96.7407 217.15 96.97C217.06 97.13 217 97.21 216.99 97.2C216.98 97.19 217.13 96.84 217.3 96.2C217.54 95.2688 217.577 94.2969 217.41 93.35C217.162 91.9581 216.459 90.688 215.41 89.74C214.746 89.1985 213.976 88.8018 213.15 88.5753C212.323 88.3488 211.459 88.2974 210.611 88.4245C209.764 88.5516 208.953 88.8544 208.229 89.3134C207.506 89.7724 206.886 90.3775 206.41 91.09C205.702 92.2965 205.408 93.7008 205.57 95.09C205.689 96.0402 206.009 96.954 206.51 97.77C206.91 98.35 207.18 98.62 207.15 98.66Z" fill="#263238"/>
<path d="M238.27 133.2C238.139 133.273 237.997 133.323 237.85 133.35C237.57 133.44 237.16 133.54 236.62 133.67C235.096 134.032 233.544 134.263 231.98 134.36C229.639 134.543 227.287 134.18 225.11 133.3C222.468 132.09 220.297 130.045 218.93 127.48C217.558 124.946 216.84 122.111 216.84 119.23C216.842 116.897 217.179 114.577 217.84 112.34C218.28 110.842 218.828 109.378 219.48 107.96C219.71 107.46 219.9 107.07 220.04 106.82C220.1 106.684 220.177 106.556 220.27 106.44C220.103 106.985 219.903 107.52 219.67 108.04C219.093 109.476 218.602 110.945 218.2 112.44C217.586 114.647 217.28 116.929 217.29 119.22C217.312 122.016 218.023 124.764 219.36 127.22C220.666 129.689 222.74 131.666 225.27 132.85C227.398 133.736 229.699 134.129 232 134C233.547 133.937 235.088 133.763 236.61 133.48C237.157 133.351 237.711 133.257 238.27 133.2V133.2Z" fill="#263238"/>
<path d="M216.93 108.51C216.917 108.672 216.877 108.831 216.81 108.98C216.652 109.429 216.437 109.856 216.17 110.25C215.17 111.712 213.686 112.774 211.98 113.25C210.811 113.598 209.575 113.652 208.38 113.41C207.006 113.128 205.717 112.525 204.62 111.65C203.407 110.693 202.429 109.472 201.76 108.08C201.061 106.576 200.7 104.938 200.7 103.28C200.687 100.076 201.79 96.9683 203.82 94.49C204.615 93.4508 205.633 92.6039 206.8 92.0118C207.967 91.4198 209.252 91.0979 210.56 91.07C212.332 91.0608 214.04 91.7339 215.33 92.95C215.809 93.3749 216.176 93.9105 216.4 94.51C216.048 94.0011 215.646 93.5287 215.2 93.1C213.91 91.9944 212.258 91.4033 210.56 91.44C209.316 91.4909 208.099 91.8179 206.998 92.3973C205.896 92.9767 204.937 93.794 204.19 94.79C202.246 97.1921 201.186 100.19 201.19 103.28C201.19 104.861 201.531 106.423 202.19 107.86C202.824 109.187 203.746 110.355 204.89 111.28C205.925 112.112 207.135 112.697 208.43 112.99C209.565 113.23 210.741 113.196 211.86 112.89C213.501 112.463 214.952 111.498 215.98 110.15C216.34 109.63 216.658 109.081 216.93 108.51V108.51Z" fill="#263238"/>
<path d="M502.76 216.59H177.31C169.263 216.59 162.74 223.113 162.74 231.16V436.51C162.74 444.557 169.263 451.08 177.31 451.08H502.76C510.807 451.08 517.33 444.557 517.33 436.51V231.16C517.33 223.113 510.807 216.59 502.76 216.59Z" fill="#455A64"/>
<path d="M148.88 435.94H533.05V438.66C533.05 443.381 531.175 447.908 527.836 451.246C524.498 454.585 519.971 456.46 515.25 456.46H166.68C161.959 456.46 157.432 454.585 154.094 451.246C150.755 447.908 148.88 443.381 148.88 438.66V435.94Z" fill="#455A64"/>
<path d="M506.82 225.91H172.26V423.93H506.82V225.91Z" fill="#263238"/>
<path d="M305.08 433.74L309.85 441.32H376.93L381.36 433.74H305.08Z" fill="#263238"/>
<path d="M497.35 232.61H182.42C180.614 232.61 179.15 234.074 179.15 235.88V420.02C179.15 421.826 180.614 423.29 182.42 423.29H497.35C499.156 423.29 500.62 421.826 500.62 420.02V235.88C500.62 234.074 499.156 232.61 497.35 232.61Z" fill="#EBEBEB"/>
<path d="M500.27 423.58H178.81L179.15 246.87H500.27V423.58Z" fill="#FAFAFA"/>
<path d="M205.51 240C205.51 240.509 205.359 241.006 205.076 241.429C204.793 241.852 204.391 242.181 203.921 242.375C203.451 242.57 202.934 242.62 202.435 242.52C201.936 242.42 201.478 242.174 201.119 241.814C200.76 241.453 200.516 240.994 200.418 240.495C200.32 239.996 200.372 239.479 200.569 239.01C200.765 238.54 201.096 238.139 201.519 237.858C201.943 237.577 202.441 237.428 202.95 237.43C203.287 237.43 203.621 237.497 203.932 237.626C204.243 237.755 204.526 237.945 204.764 238.183C205.002 238.422 205.19 238.706 205.318 239.017C205.446 239.329 205.511 239.663 205.51 240V240Z" fill="#263238"/>
<path d="M190 240C190 240.509 189.849 241.006 189.566 241.429C189.283 241.852 188.881 242.181 188.411 242.375C187.941 242.57 187.424 242.62 186.925 242.52C186.426 242.42 185.968 242.174 185.609 241.814C185.25 241.453 185.006 240.994 184.908 240.495C184.81 239.996 184.862 239.479 185.059 239.01C185.255 238.54 185.586 238.139 186.009 237.858C186.433 237.577 186.931 237.428 187.44 237.43C187.777 237.43 188.111 237.497 188.422 237.626C188.733 237.755 189.016 237.945 189.254 238.183C189.492 238.422 189.68 238.706 189.808 239.017C189.936 239.329 190.001 239.663 190 240V240Z" fill="#263238"/>
<path d="M197.42 240C197.42 240.509 197.269 241.006 196.986 241.429C196.703 241.852 196.301 242.181 195.831 242.375C195.361 242.57 194.844 242.62 194.345 242.52C193.846 242.42 193.388 242.174 193.029 241.814C192.67 241.453 192.426 240.994 192.328 240.495C192.23 239.996 192.282 239.479 192.479 239.01C192.675 238.54 193.006 238.139 193.429 237.858C193.853 237.577 194.351 237.428 194.86 237.43C195.54 237.433 196.191 237.705 196.671 238.186C197.151 238.668 197.42 239.32 197.42 240V240Z" fill="#263238"/>
<path d="M514.28 433.74C514.28 433.87 435.58 433.97 338.52 433.97C241.46 433.97 162.74 433.87 162.74 433.74C162.74 433.61 241.43 433.51 338.52 433.51C435.61 433.51 514.28 433.61 514.28 433.74Z" fill="#263238"/>
<path d="M380.92 389.09C380.92 389.23 361.64 389.35 337.86 389.35C314.08 389.35 294.8 389.23 294.8 389.09C294.8 388.95 314.08 388.83 337.86 388.83C361.64 388.83 380.92 389 380.92 389.09Z" fill="#E0E0E0"/>
<path d="M282.51 343.8H186.58V415.9H282.51V343.8Z" fill="#F5F5F5"/>
<path d="M186.62 415.95L220.08 371.1L240.86 399.12L254.93 384.12L282.55 415.86L186.62 415.95Z" fill="#E0E0E0"/>
<path d="M249.64 365.58C249.642 367.073 249.201 368.534 248.373 369.776C247.545 371.019 246.367 371.988 244.988 372.561C243.61 373.135 242.092 373.286 240.627 372.997C239.162 372.707 237.816 371.99 236.758 370.936C235.701 369.881 234.98 368.537 234.687 367.073C234.394 365.609 234.541 364.09 235.111 362.71C235.681 361.33 236.647 360.149 237.887 359.318C239.128 358.487 240.587 358.042 242.08 358.04C243.072 358.037 244.054 358.23 244.972 358.608C245.889 358.986 246.722 359.541 247.425 360.241C248.127 360.942 248.684 361.774 249.064 362.69C249.444 363.606 249.64 364.588 249.64 365.58V365.58Z" fill="#E0E0E0"/>
<path d="M489.5 343.91H393.57V416.01H489.5V343.91Z" fill="#F5F5F5"/>
<path d="M393.6 416.06L427.07 371.21L447.85 399.23L461.91 384.23L489.53 415.97L393.6 416.06Z" fill="#E0E0E0"/>
<path d="M456.63 365.69C456.632 367.186 456.19 368.648 455.361 369.893C454.531 371.137 453.351 372.108 451.97 372.682C450.589 373.255 449.068 373.407 447.601 373.116C446.134 372.825 444.786 372.106 443.728 371.049C442.67 369.992 441.949 368.645 441.656 367.179C441.363 365.712 441.513 364.191 442.085 362.809C442.656 361.427 443.625 360.246 444.869 359.415C446.112 358.584 447.574 358.14 449.07 358.14C451.073 358.14 452.995 358.935 454.412 360.351C455.83 361.766 456.627 363.687 456.63 365.69V365.69Z" fill="#E0E0E0"/>
<path d="M474.32 329.58C475.209 329.431 476.11 329.371 477.01 329.4C478.67 329.4 481.01 329.32 483.5 329.32H486.32L486.07 329.57C486.07 327.72 486.12 326.13 486.17 325C486.148 324.399 486.198 323.798 486.32 323.21C486.443 323.798 486.497 324.399 486.48 325C486.48 326.13 486.55 327.72 486.57 329.57V329.82H483.5C480.97 329.82 478.67 329.82 477.01 329.74C476.11 329.776 475.209 329.722 474.32 329.58Z" fill="#E0E0E0"/>
<path d="M450.32 329.58C454.312 329.233 458.328 329.233 462.32 329.58C458.328 329.927 454.312 329.927 450.32 329.58Z" fill="#E0E0E0"/>
<path d="M426.32 329.58C430.312 329.233 434.328 329.233 438.32 329.58C434.328 329.927 430.312 329.927 426.32 329.58Z" fill="#E0E0E0"/>
<path d="M402.32 329.58C406.312 329.233 410.328 329.233 414.32 329.58C410.328 329.927 406.312 329.927 402.32 329.58Z" fill="#E0E0E0"/>
<path d="M378.32 329.58C382.312 329.233 386.328 329.233 390.32 329.58C386.328 329.927 382.312 329.927 378.32 329.58Z" fill="#E0E0E0"/>
<path d="M354.32 329.58C358.312 329.233 362.328 329.233 366.32 329.58C362.328 329.927 358.312 329.927 354.32 329.58Z" fill="#E0E0E0"/>
<path d="M330.32 329.58C334.312 329.233 338.328 329.233 342.32 329.58C338.328 329.927 334.312 329.927 330.32 329.58Z" fill="#E0E0E0"/>
<path d="M306.32 329.58C310.312 329.233 314.328 329.233 318.32 329.58C314.328 329.927 310.312 329.927 306.32 329.58Z" fill="#E0E0E0"/>
<path d="M282.32 329.58C284.309 329.323 286.316 329.236 288.32 329.32C290.324 329.236 292.331 329.323 294.32 329.58C292.331 329.837 290.324 329.924 288.32 329.84C286.316 329.924 284.309 329.837 282.32 329.58V329.58Z" fill="#E0E0E0"/>
<path d="M258.32 329.58C260.309 329.323 262.316 329.236 264.32 329.32C266.324 329.236 268.331 329.323 270.32 329.58C268.331 329.837 266.324 329.924 264.32 329.84C262.316 329.924 260.309 329.837 258.32 329.58V329.58Z" fill="#E0E0E0"/>
<path d="M234.32 329.58C236.309 329.323 238.316 329.236 240.32 329.32C242.324 329.236 244.331 329.323 246.32 329.58C244.331 329.837 242.324 329.924 240.32 329.84C238.316 329.924 236.309 329.837 234.32 329.58V329.58Z" fill="#E0E0E0"/>
<path d="M210.32 329.58C212.309 329.323 214.316 329.236 216.32 329.32C218.324 329.236 220.331 329.323 222.32 329.58C220.331 329.837 218.324 329.924 216.32 329.84C214.316 329.924 212.309 329.837 210.32 329.58V329.58Z" fill="#E0E0E0"/>
<path d="M186.34 329.57C188.33 329.323 190.337 329.239 192.34 329.32C194.344 329.236 196.351 329.323 198.34 329.58C196.351 329.837 194.344 329.924 192.34 329.84C190.337 329.921 188.33 329.837 186.34 329.59V329.59V329.57Z" fill="#E0E0E0"/>
<path d="M186.34 305.57C186.687 309.562 186.687 313.578 186.34 317.57C185.993 313.578 185.993 309.562 186.34 305.57V305.57Z" fill="#E0E0E0"/>
<path d="M186.34 281.57C186.597 283.559 186.684 285.566 186.6 287.57C186.684 289.574 186.597 291.581 186.34 293.57C186.077 291.582 185.99 289.574 186.08 287.57C185.99 285.566 186.077 283.558 186.34 281.57V281.57Z" fill="#E0E0E0"/>
<path d="M186.34 257.57C186.597 259.559 186.684 261.566 186.6 263.57C186.684 265.574 186.597 267.581 186.34 269.57C186.077 267.582 185.99 265.574 186.08 263.57C185.99 261.566 186.077 259.558 186.34 257.57V257.57Z" fill="#E0E0E0"/>
<path d="M207.16 254.39C205.171 254.647 203.164 254.734 201.16 254.65C199.156 254.734 197.149 254.647 195.16 254.39C197.148 254.127 199.156 254.04 201.16 254.13C203.164 254.04 205.172 254.127 207.16 254.39Z" fill="#E0E0E0"/>
<path d="M231.16 254.39C229.171 254.647 227.164 254.734 225.16 254.65C223.156 254.734 221.149 254.647 219.16 254.39C221.148 254.127 223.156 254.04 225.16 254.13C227.164 254.04 229.172 254.127 231.16 254.39V254.39Z" fill="#E0E0E0"/>
<path d="M255.16 254.39C253.171 254.647 251.164 254.734 249.16 254.65C247.156 254.734 245.149 254.647 243.16 254.39C245.148 254.127 247.156 254.04 249.16 254.13C251.164 254.04 253.172 254.127 255.16 254.39Z" fill="#E0E0E0"/>
<path d="M279.16 254.39C277.171 254.647 275.164 254.734 273.16 254.65C271.156 254.734 269.149 254.647 267.16 254.39C269.148 254.127 271.156 254.04 273.16 254.13C275.164 254.04 277.172 254.127 279.16 254.39Z" fill="#E0E0E0"/>
<path d="M303.16 254.39C299.168 254.737 295.152 254.737 291.16 254.39C293.148 254.127 295.156 254.04 297.16 254.13C299.164 254.04 301.172 254.127 303.16 254.39Z" fill="#E0E0E0"/>
<path d="M327.16 254.39C323.168 254.737 319.152 254.737 315.16 254.39C319.152 254.043 323.168 254.043 327.16 254.39Z" fill="#E0E0E0"/>
<path d="M351.16 254.39C347.168 254.737 343.152 254.737 339.16 254.39C343.152 254.043 347.168 254.043 351.16 254.39Z" fill="#E0E0E0"/>
<path d="M375.16 254.39C371.168 254.737 367.152 254.737 363.16 254.39C367.152 254.043 371.168 254.043 375.16 254.39Z" fill="#E0E0E0"/>
<path d="M399.16 254.39C395.168 254.737 391.152 254.737 387.16 254.39C391.152 254.043 395.168 254.043 399.16 254.39Z" fill="#E0E0E0"/>
<path d="M423.16 254.39C419.168 254.737 415.152 254.737 411.16 254.39C415.152 254.043 419.168 254.043 423.16 254.39Z" fill="#E0E0E0"/>
<path d="M447.16 254.39C443.168 254.737 439.152 254.737 435.16 254.39C439.152 254.043 443.168 254.043 447.16 254.39Z" fill="#E0E0E0"/>
<path d="M471.16 254.39C467.168 254.737 463.152 254.737 459.16 254.39C463.152 254.043 467.168 254.043 471.16 254.39Z" fill="#E0E0E0"/>
<path d="M486.32 263.22C486.063 261.231 485.976 259.224 486.06 257.22C486.06 256.22 486.06 255.28 486.06 254.39L486.29 254.62C485.231 254.66 484.172 254.583 483.13 254.39C484.171 254.191 485.231 254.114 486.29 254.16H486.52V254.4C486.52 255.29 486.52 256.23 486.52 257.23C486.629 259.229 486.562 261.233 486.32 263.22V263.22Z" fill="#E0E0E0"/>
<path d="M486.32 287.22C486.063 285.231 485.976 283.224 486.06 281.22C485.976 279.216 486.063 277.209 486.32 275.22C486.583 277.208 486.67 279.216 486.58 281.22C486.67 283.224 486.583 285.232 486.32 287.22V287.22Z" fill="#E0E0E0"/>
<path d="M486.32 311.22C485.973 307.228 485.973 303.212 486.32 299.22C486.667 303.212 486.667 307.228 486.32 311.22V311.22Z" fill="#E0E0E0"/>
<path d="M380.92 413.4C380.92 413.55 361.64 413.66 337.86 413.66C314.08 413.66 294.8 413.55 294.8 413.4C294.8 413.25 314.08 413.14 337.86 413.14C361.64 413.14 380.92 413.26 380.92 413.4Z" fill="#E0E0E0"/>
<path d="M380.92 402.28C380.92 402.42 361.64 402.54 337.86 402.54C314.08 402.54 294.8 402.42 294.8 402.28C294.8 402.14 314.08 402.02 337.86 402.02C361.64 402.02 380.92 402.14 380.92 402.28Z" fill="#E0E0E0"/>
<path d="M117.16 316.53H111.98V456.26H117.16V316.53Z" fill="#263238"/>
<path d="M114.57 321.51C131.205 321.51 144.69 308.025 144.69 291.39C144.69 274.755 131.205 261.27 114.57 261.27C97.9352 261.27 84.45 274.755 84.45 291.39C84.45 308.025 97.9352 321.51 114.57 321.51Z" fill="#7E57C2"/>
<path d="M141.69 291C141.659 290.855 141.642 290.708 141.64 290.56C141.64 290.25 141.64 289.82 141.55 289.28C141.55 288.99 141.55 288.68 141.49 288.33C141.43 287.98 141.37 287.61 141.31 287.2C141.191 286.257 141.001 285.324 140.74 284.41C140.109 281.879 139.097 279.458 137.74 277.23C135.96 274.273 133.632 271.683 130.88 269.6C127.3 266.877 123.093 265.099 118.646 264.428C114.198 263.757 109.654 264.215 105.43 265.76C104.229 266.192 103.06 266.707 101.93 267.3C101.36 267.61 100.81 267.97 100.25 268.3C99.6854 268.636 99.1442 269.011 98.63 269.42C97.5755 270.218 96.5734 271.083 95.63 272.01C94.6787 272.987 93.7965 274.03 92.99 275.13C91.3238 277.375 90.0305 279.873 89.16 282.53C88.2549 285.264 87.7694 288.12 87.72 291C87.7556 293.876 88.2208 296.731 89.1 299.47C89.9739 302.13 91.2705 304.632 92.94 306.88C93.7484 307.976 94.6269 309.018 95.57 310C96.5298 310.928 97.5486 311.793 98.62 312.59C99.1342 312.999 99.6754 313.373 100.24 313.71C100.8 314.04 101.35 314.4 101.92 314.71C103.048 315.307 104.218 315.822 105.42 316.25C111.3 318.387 117.74 318.411 123.635 316.318C129.531 314.225 134.514 310.146 137.73 304.78C139.089 302.556 140.1 300.139 140.73 297.61C140.991 296.692 141.181 295.756 141.3 294.81C141.37 294.41 141.44 294.03 141.48 293.68C141.52 293.33 141.48 293.02 141.54 292.74C141.58 292.187 141.61 291.757 141.63 291.45C141.632 291.302 141.649 291.155 141.68 291.01C141.693 291.156 141.693 291.304 141.68 291.45C141.68 291.77 141.68 292.2 141.68 292.74C141.68 293.033 141.68 293.367 141.68 293.74C141.68 294.09 141.58 294.46 141.53 294.88C141.421 295.831 141.244 296.774 141 297.7C140.377 300.262 139.365 302.714 138 304.97C136.032 308.304 133.377 311.182 130.212 313.411C127.046 315.64 123.442 317.17 119.64 317.9C114.836 318.804 109.877 318.403 105.28 316.74C104.052 316.304 102.856 315.782 101.7 315.18C101.13 314.87 100.57 314.51 100 314.18C99.4158 313.827 98.8577 313.433 98.33 313C97.2343 312.196 96.1952 311.317 95.22 310.37C94.2545 309.374 93.3558 308.315 92.53 307.2C90.8302 304.911 89.5069 302.366 88.61 299.66C86.7303 294.053 86.7303 287.987 88.61 282.38C89.5069 279.674 90.8302 277.129 92.53 274.84C93.3563 273.729 94.255 272.673 95.22 271.68C96.1937 270.716 97.2329 269.821 98.33 269C98.8502 268.582 99.4018 268.204 99.98 267.87C100.55 267.53 101.11 267.16 101.68 266.87C102.838 266.272 104.034 265.751 105.26 265.31C109.858 263.649 114.817 263.252 119.62 264.16C123.428 264.885 127.037 266.414 130.207 268.646C133.377 270.877 136.033 273.76 138 277.1C139.367 279.359 140.379 281.814 141 284.38C141.245 285.306 141.422 286.248 141.53 287.2C141.58 287.61 141.65 287.99 141.68 288.34C141.71 288.69 141.68 289 141.68 289.34C141.68 289.89 141.68 290.34 141.68 290.63C141.693 290.753 141.696 290.877 141.69 291Z" fill="white"/>
<path d="M130.26 287.63H98.89V294.17H130.26V287.63Z" fill="#FAFAFA"/>
<path d="M518.402 252.772L225.006 276.326L231.844 361.502L525.24 337.948L518.402 252.772Z" fill="white"/>
<path d="M525.26 337.91C525.16 336.68 522.67 306.42 518.26 252.75L518.43 252.9L225.06 276.57L225.29 276.29C227.65 305.69 229.95 334.29 232.13 361.46L231.86 361.23L441.56 344.5L525.26 337.91L523.83 338.04L519.59 338.4L503.14 339.75L441.75 344.75L231.89 361.75H231.64V361.49C229.45 334.34 227.15 305.72 224.79 276.32V276.06H225.05L518.4 252.57H518.57V252.73C522.79 306.41 525.17 336.68 525.26 337.91Z" fill="#263238"/>
<path d="M325.707 278.508L233.057 284.993L237.932 354.633L330.582 348.147L325.707 278.508Z" fill="#7E57C2"/>
<path d="M440.82 337.88C438.845 338.303 436.838 338.557 434.82 338.64L434.54 338.4V338.11V337.81C434.54 337.6 434.54 337.41 434.54 337.21C434.54 336.83 434.48 336.46 434.46 336.09C434.46 335.43 434.39 334.8 434.35 334.18C434.265 333.596 434.265 333.004 434.35 332.42C434.545 332.977 434.656 333.56 434.68 334.15C434.75 334.76 434.82 335.39 434.9 336.05C434.9 336.41 434.97 336.79 435 337.17L435.06 337.76V338.07V338.35L434.78 338.11C436.783 337.864 438.804 337.787 440.82 337.88Z" fill="#E0E0E0"/>
<path d="M468 335.59C465.77 336.033 463.511 336.31 461.24 336.42C458.982 336.703 456.705 336.807 454.43 336.73C456.66 336.287 458.919 336.01 461.19 335.9C463.448 335.617 465.725 335.513 468 335.59V335.59Z" fill="#E0E0E0"/>
<path d="M495.1 333.3C492.87 333.743 490.611 334.02 488.34 334.13C486.081 334.408 483.805 334.511 481.53 334.44C483.76 333.997 486.019 333.72 488.29 333.61C490.548 333.327 492.825 333.223 495.1 333.3V333.3Z" fill="#E0E0E0"/>
<path d="M514.14 325.67C514.574 327.626 514.831 329.618 514.91 331.62C514.43 332.19 514.77 331.78 514.67 331.91H514.36H514.06H513.46L512.34 331.99L510.44 332.1C509.853 332.185 509.257 332.185 508.67 332.1C509.231 331.907 509.817 331.796 510.41 331.77L512.3 331.55L513.42 331.44L514.02 331.39H514.32H514.62C514.52 331.51 514.86 331.11 514.39 331.67C514.137 329.681 514.053 327.673 514.14 325.67V325.67Z" fill="#E0E0E0"/>
<path d="M512.25 303.28C512.935 306.97 513.27 310.717 513.25 314.47C512.837 312.64 512.592 310.775 512.52 308.9C512.262 307.039 512.172 305.158 512.25 303.28Z" fill="#E0E0E0"/>
<path d="M510.36 280.9C510.78 282.73 511.028 284.594 511.1 286.47C511.341 288.333 511.411 290.214 511.31 292.09C510.891 290.257 510.647 288.389 510.58 286.51C510.339 284.65 510.265 282.773 510.36 280.9V280.9Z" fill="#E0E0E0"/>
<path d="M502.93 264.23C504.905 263.808 506.912 263.554 508.93 263.47L509.21 263.71V264V264.3C509.21 264.51 509.21 264.7 509.21 264.9C509.21 265.28 509.26 265.65 509.29 266.02C509.29 266.68 509.36 267.31 509.39 267.93C509.478 268.513 509.478 269.107 509.39 269.69C509.196 269.133 509.084 268.55 509.06 267.96C508.99 267.35 508.92 266.72 508.84 266.06C508.84 265.7 508.77 265.32 508.73 264.94L508.68 264.35V264.04V263.76L508.97 264C506.967 264.246 504.946 264.323 502.93 264.23V264.23Z" fill="#E0E0E0"/>
<path d="M475.8 266.52C478.03 266.075 480.289 265.798 482.56 265.69C484.815 265.407 487.089 265.303 489.36 265.38C487.13 265.824 484.871 266.102 482.6 266.21C480.345 266.494 478.071 266.597 475.8 266.52V266.52Z" fill="#E0E0E0"/>
<path d="M448.66 268.81C450.89 268.366 453.149 268.088 455.42 267.98C457.679 267.702 459.955 267.599 462.23 267.67C459.997 268.113 457.734 268.391 455.46 268.5C453.205 268.784 450.931 268.887 448.66 268.81V268.81Z" fill="#E0E0E0"/>
<path d="M429.61 276.44C429.188 274.482 428.934 272.491 428.85 270.49C429.32 269.92 428.98 270.33 429.09 270.21H429.39H429.7L430.29 270.16L431.41 270.08L433.32 269.97C433.907 269.885 434.503 269.885 435.09 269.97C434.528 270.161 433.943 270.272 433.35 270.3L431.45 270.52L430.33 270.63L429.74 270.68H429.44H429.13L429.37 270.4C429.632 272.402 429.712 274.424 429.61 276.44V276.44Z" fill="#E0E0E0"/>
<path d="M431.5 298.83C431.088 296.996 430.844 295.128 430.77 293.25C430.523 291.391 430.452 289.512 430.56 287.64C430.973 289.47 431.218 291.335 431.29 293.21C431.537 295.072 431.608 296.954 431.5 298.83Z" fill="#E0E0E0"/>
<path d="M433.39 321.21C432.977 319.38 432.732 317.515 432.66 315.64C432.413 313.778 432.342 311.896 432.45 310.02C432.863 311.854 433.107 313.722 433.18 315.6C433.427 317.459 433.498 319.338 433.39 321.21V321.21Z" fill="#E0E0E0"/>
<path d="M237.68 353.51L266.89 308.04L288.81 333.63L301.34 318.22L330.1 346.94L237.68 353.51Z" fill="#7E57C2"/>
<path d="M295 300.72C295.103 302.16 294.777 303.599 294.062 304.854C293.348 306.108 292.278 307.123 290.986 307.769C289.695 308.416 288.241 308.665 286.809 308.485C285.376 308.305 284.029 307.704 282.938 306.758C281.847 305.812 281.06 304.564 280.679 303.172C280.297 301.779 280.336 300.305 280.793 298.935C281.249 297.565 282.101 296.361 283.242 295.476C284.382 294.59 285.76 294.063 287.2 293.96C289.13 293.825 291.035 294.461 292.497 295.728C293.959 296.995 294.859 298.79 295 300.72V300.72Z" fill="#7E57C2"/>
<g opacity="0.2">
<path opacity="0.2" d="M237.68 353.51L266.89 308.04L288.81 333.63L301.34 318.22L330.1 346.94L237.68 353.51Z" fill="black"/>
</g>
<g opacity="0.2">
<path opacity="0.2" d="M295 300.72C295.103 302.16 294.777 303.599 294.062 304.854C293.348 306.108 292.278 307.123 290.986 307.769C289.695 308.416 288.241 308.665 286.809 308.485C285.376 308.305 284.029 307.704 282.938 306.758C281.847 305.812 281.06 304.564 280.679 303.172C280.297 301.779 280.336 300.305 280.793 298.935C281.249 297.565 282.101 296.361 283.242 295.476C284.382 294.59 285.76 294.063 287.2 293.96C289.13 293.825 291.035 294.461 292.497 295.728C293.959 296.995 294.859 298.79 295 300.72V300.72Z" fill="black"/>
</g>
<path d="M421.51 289.44C421.51 289.59 403.56 291.36 381.39 293.44C359.22 295.52 341.23 297.03 341.21 296.88C341.19 296.73 359.21 294.97 381.34 292.88C403.47 290.79 421.5 289.3 421.51 289.44Z" fill="#263238"/>
<path d="M423.84 302.8C423.84 302.95 405.68 304.74 383.27 306.8C360.86 308.86 342.66 310.43 342.64 310.29C342.62 310.15 360.79 308.35 383.22 306.29C405.65 304.23 423.82 302.66 423.84 302.8Z" fill="#263238"/>
<path d="M426.16 316.17C426.16 316.31 407.81 318.12 385.16 320.17C362.51 322.22 344.16 323.84 344.16 323.7C344.16 323.56 362.5 321.75 385.16 319.65C407.82 317.55 426.15 316 426.16 316.17Z" fill="#263238"/>
<path d="M426.64 329.41C426.64 329.56 408.27 331.41 385.59 333.47C362.91 335.53 344.49 337.14 344.48 337C344.47 336.86 362.85 335 385.54 332.95C408.23 330.9 426.63 329.27 426.64 329.41Z" fill="#263238"/>
<path d="M381.676 280.621L339.402 284.015L339.67 287.364L381.944 283.97L381.676 280.621Z" fill="#7E57C2"/>
<path d="M472.82 311.51C472.68 311.51 472.13 306.59 471.6 300.51C471.07 294.43 470.76 289.46 470.91 289.45C471.06 289.44 471.59 294.37 472.12 300.45C472.65 306.53 473 311.5 472.82 311.51Z" fill="#E0E0E0"/>
<path d="M482.06 299.94C482.06 300.08 477.32 300.5 471.46 300.87C465.6 301.24 460.83 301.43 460.83 301.29C464.345 300.796 467.883 300.483 471.43 300.35C477.29 300 482.05 299.8 482.06 299.94Z" fill="#E0E0E0"/>
<path d="M518.42 252.73C518.42 252.73 518.18 252.66 517.71 252.48L515.71 251.7L507.83 248.64L478.7 237.23L381.42 198.89H381.63L369.32 205L267.32 255.53L236.4 270.78L228 274.9L225.8 275.96C225.31 276.2 225.05 276.31 225.05 276.31L225.78 275.91L227.95 274.81L236.33 270.6L267.19 255.19L369.11 204.52L381.42 198.41H381.52H381.63L478.85 236.9L507.85 248.46L515.69 251.61L517.69 252.44L518.42 252.73Z" fill="#263238"/>
<path d="M458.68 113C458.152 111.836 457.302 110.847 456.23 110.151C455.158 109.455 453.909 109.08 452.631 109.072C451.352 109.063 450.098 109.421 449.017 110.103C447.936 110.785 447.073 111.763 446.53 112.92L436.08 113.78L446.64 134.61L453.26 122.43C453.987 122.362 454.698 122.169 455.36 121.86C456.16 121.496 456.88 120.979 457.48 120.336C458.079 119.694 458.547 118.94 458.855 118.118C459.163 117.295 459.307 116.42 459.277 115.541C459.247 114.663 459.044 113.8 458.68 113V113Z" fill="#263238"/>
<path d="M398.36 82.84L405.18 79.93L388.73 75.79C388.003 74.6553 386.95 73.7667 385.709 73.2406C384.468 72.7146 383.097 72.5756 381.776 72.8418C380.455 73.1081 379.245 73.7672 378.304 74.7329C377.364 75.6985 376.738 76.9256 376.507 78.2534C376.276 79.5812 376.451 80.9479 377.01 82.1743C377.569 83.4007 378.485 84.4297 379.639 85.1265C380.793 85.8233 382.13 86.1554 383.475 86.0793C384.821 86.0032 386.112 85.5224 387.18 84.7L402.8 94.26L398.36 82.84Z" fill="#263238"/>
<path d="M530 287.3V287.16L417.11 76.72L416.47 75.53L398.69 83.64L483.82 308L483.87 308.14L534.57 388.73L535.57 388.58L536.74 388.41L537.66 388.27L527.17 371.6L533.3 355.81L549.53 361.81L556.68 385.46L557.53 385.34L558.61 385.18L559.61 385.04L530 287.3ZM537.3 321.39L517.04 316.19L528.79 293.24L537.3 321.39ZM515.25 315.73L490.33 309.33L527.11 292.57L515.25 315.73ZM524.66 283.37L498.77 276.21L509.39 254.9L524.66 283.37ZM497 275.73L474.21 269.43L507.76 254.14L497 275.73ZM506.23 249L482.37 240.68L490.88 220.38L506.23 249ZM480.67 240.09L459.67 232.78L489.36 219.26L480.67 240.09ZM487.5 214.09L465.79 204.71L472.22 185.59L487.5 214.09ZM464.13 204L445.53 196L470.68 184.54L464.13 204ZM469.13 179.79L469.01 179.85L449.48 169.29L453.82 151.24L469.13 179.79ZM449.87 143.9L432.87 132.46L435.12 116.34L449.87 143.9ZM431.17 131.34L417.48 122.14L433.48 114.85L431.17 131.34ZM416.66 82L431.12 109L416.25 96.47L416.66 82ZM413.9 115.63L403.4 88L414.4 97.28L413.9 115.63ZM414.49 94.95L402.68 85L414.93 79.42L414.49 94.95ZM416.18 98.74L430.49 110.74L415.64 117.51L416.18 98.74ZM417.11 124.08L430.9 133.34L428.12 153.13L417.11 124.08ZM432.56 134.46L449.13 145.59L429.76 154.41L432.56 134.46ZM452.33 149.57L447.81 168.38L431 159.27L452.33 149.57ZM431.33 161.51L447.39 170.19L442.44 190.79L431.33 161.51ZM449.03 171.08L466.94 180.76L444.19 191.1L449.03 171.08ZM445.03 197.7L463.54 205.7L456.27 227.33L445.03 197.7ZM465.2 206.41L485.95 215.41L457.88 228.19L465.2 206.41ZM458.96 234.41L479.96 241.73L470.4 264.56L458.96 234.41ZM481.67 242.33L504.39 250.25L472.21 264.9L481.67 242.33ZM472.81 270.92L496.19 277.38L484.31 301.22L472.81 270.92ZM498 277.86L523.41 284.86L486.01 301.86L498 277.86ZM489 310.86L514.48 317.4L504.89 336.12L489 310.86ZM516.27 317.86L537 323.18L506.28 337.18L516.27 317.86ZM526.05 369.76L512.44 348.12L531.68 355.25L526.05 369.76ZM532.33 353.57L510.87 345.57L510.34 344.74L540.34 331.09L540.65 332.09L532.33 353.57ZM534.02 354.19L541.42 335L548.9 359.74L534.02 354.19Z" fill="#263238"/>
<path d="M381.35 176.29C381.35 176.29 381.35 175.69 381.35 174.51C381.35 173.33 381.35 171.59 381.35 169.31C381.35 164.74 381.35 158.02 381.29 149.41C381.29 132.18 381.24 107.41 381.2 77.11V76.92H381.39L413 73.57H413.11L413.19 73.66L495.64 165.81L615.64 300.13L652 340.86L661.86 351.96L664.41 354.85C664.98 355.5 665.27 355.85 665.27 355.85C665.27 355.85 664.96 355.53 664.37 354.85C663.78 354.17 662.91 353.25 661.78 351.99C659.5 349.47 656.16 345.75 651.85 340.99L615.41 300.35L495.26 166.15L412.86 74L413.05 74.08L381.37 77.36L381.55 77.16C381.55 107.44 381.49 132.23 381.46 149.46C381.46 158.07 381.46 164.79 381.46 169.36C381.46 171.64 381.46 173.36 381.46 174.56C381.46 175.76 381.35 176.29 381.35 176.29Z" fill="#263238"/>
<path d="M383.17 148.04H378.87C378.66 148.04 378.49 148.21 378.49 148.42V158.51C378.49 158.72 378.66 158.89 378.87 158.89H383.17C383.38 158.89 383.55 158.72 383.55 158.51V148.42C383.55 148.21 383.38 148.04 383.17 148.04Z" fill="#263238"/>
<path d="M389.61 160.57H373C372.509 160.57 372.039 160.375 371.692 160.028C371.345 159.681 371.15 159.211 371.15 158.72V158.72C371.15 158.229 371.345 157.759 371.692 157.412C372.039 157.065 372.509 156.87 373 156.87H389.62C390.111 156.87 390.581 157.065 390.928 157.412C391.275 157.759 391.47 158.229 391.47 158.72V158.72C391.47 158.964 391.422 159.205 391.328 159.43C391.235 159.655 391.097 159.86 390.925 160.032C390.752 160.204 390.547 160.34 390.321 160.432C390.095 160.524 389.854 160.571 389.61 160.57V160.57Z" fill="#263238"/>
<path d="M382.51 190.29L382.45 187.92L380 189C379.915 189.875 379.915 190.755 380 191.63C380.004 191.771 380.034 191.91 380.09 192.04C380.242 192.236 380.452 192.38 380.69 192.45C381.763 192.859 382.654 193.639 383.2 194.65C383.38 195.017 383.479 195.419 383.492 195.828C383.505 196.236 383.431 196.643 383.275 197.021C383.119 197.399 382.885 197.74 382.587 198.021C382.29 198.302 381.936 198.516 381.55 198.65C380.789 198.88 379.967 198.799 379.266 198.424C378.565 198.049 378.041 197.411 377.81 196.65C377.81 196.24 377.81 195.65 377.25 195.65C376.44 195.57 376.09 196.75 376.11 197.37C376.24 200.96 379.62 202.1 381.05 202.15C382.021 202.216 382.991 202.008 383.85 201.55C384.529 201.158 385.115 200.623 385.567 199.983C386.02 199.342 386.328 198.611 386.47 197.84C387.25 193.12 382.26 190.59 382.51 190.29Z" fill="#263238"/>
<path d="M384.6 189.11L395.22 163.56C395.44 163.027 395.526 162.448 395.469 161.874C395.412 161.301 395.215 160.75 394.895 160.27C394.574 159.791 394.141 159.398 393.632 159.126C393.124 158.853 392.557 158.711 391.98 158.71H370.75C370.173 158.708 369.604 158.849 369.094 159.121C368.584 159.392 368.15 159.786 367.829 160.266C367.508 160.746 367.311 161.298 367.255 161.873C367.2 162.448 367.287 163.027 367.51 163.56L378.12 189.11C378.387 189.75 378.836 190.296 379.413 190.68C379.99 191.065 380.667 191.27 381.36 191.27C382.053 191.27 382.73 191.065 383.307 190.68C383.884 190.296 384.333 189.75 384.6 189.11Z" fill="#E0E0E0"/>
<path d="M371.83 160.52L369.08 163.26C369.08 163.36 369.08 163.47 369.13 163.57L370.03 165.73L375.24 160.52H371.83Z" fill="#7E57C2"/>
<path d="M382.08 160.52H378.66L371.03 168.15L372.04 170.56L382.08 160.52Z" fill="#7E57C2"/>
<path d="M389.38 173.72L391.8 167.88L377.05 182.63L378.05 185.04L389.38 173.72Z" fill="#7E57C2"/>
<path d="M387 179.57L379.11 187.46L379.37 188.1C379.484 188.386 379.658 188.643 379.881 188.856C380.103 189.068 380.369 189.23 380.66 189.33L384.57 185.41L387 179.57Z" fill="#7E57C2"/>
<path d="M388.91 160.52H385.5L373.04 172.97L374.04 175.39L388.91 160.52Z" fill="#7E57C2"/>
<path d="M393.75 162.51C393.716 162.077 393.545 161.666 393.263 161.335C392.982 161.005 392.602 160.772 392.18 160.67L375 177.8L376 180.22L393.75 162.51Z" fill="#7E57C2"/>
<path d="M654.77 350.34H672.61C673.31 350.34 673.982 350.618 674.477 351.113C674.972 351.608 675.25 352.28 675.25 352.98V361.12H652.13V353C652.127 352.652 652.194 352.306 652.325 351.984C652.457 351.661 652.651 351.368 652.896 351.12C653.142 350.873 653.433 350.677 653.755 350.543C654.077 350.409 654.422 350.34 654.77 350.34V350.34Z" fill="#263238"/>
<path d="M611.73 358.44H607.94V335.9C607.942 334.902 608.097 333.911 608.4 332.96L610.31 327.06C610.322 327.037 610.34 327.017 610.362 327.004C610.384 326.99 610.409 326.983 610.435 326.983C610.461 326.983 610.486 326.99 610.508 327.004C610.53 327.017 610.548 327.037 610.56 327.06L612.79 331.06L612.2 332.89C611.89 333.86 611.732 334.872 611.73 335.89V358.44Z" fill="#263238"/>
<path d="M705.14 362.54C704.613 361.252 703.77 360.119 702.688 359.244C701.605 358.37 700.32 357.784 698.95 357.54L604.15 357.49V341.74C604.15 341.236 604.051 340.737 603.857 340.272C603.664 339.807 603.381 339.384 603.025 339.028C602.668 338.672 602.245 338.391 601.779 338.199C601.313 338.007 600.814 337.909 600.31 337.91H554.5C553.688 337.909 552.897 338.167 552.241 338.645C551.585 339.123 551.098 339.797 550.85 340.57L549.48 344.91H554.58C555.163 344.91 555.738 345.036 556.267 345.282C556.796 345.527 557.264 345.885 557.64 346.33C558.008 346.768 558.271 347.283 558.41 347.838C558.548 348.392 558.559 348.971 558.44 349.53L553.54 372.78C553.332 373.651 552.837 374.427 552.135 374.984C551.434 375.54 550.566 375.845 549.67 375.85H539.94C539.811 377.331 539.899 378.824 540.2 380.28L540.74 382.61L515.66 387.54C515.46 387.58 515.277 387.676 515.131 387.818C514.986 387.96 514.885 388.142 514.84 388.34L512.48 394.68C512.329 394.968 512.214 395.274 512.14 395.59C511.64 397.68 512.01 401.18 513.27 401.18H540.14L539 402.54L537.48 407.26H708.17C708.21 392 707.81 369 705.14 362.54ZM586.83 348.12L584.31 371C584.31 371.29 584.23 371.58 584.18 371.86C583.674 374.121 582.402 376.139 580.58 377.571C578.758 379.003 576.497 379.762 574.18 379.72H562.92C562.402 379.72 561.892 379.604 561.425 379.38C560.958 379.157 560.547 378.832 560.222 378.429C559.897 378.027 559.666 377.557 559.547 377.053C559.427 376.55 559.421 376.026 559.53 375.52L564.83 348.06C565.009 347.192 565.482 346.412 566.168 345.851C566.855 345.29 567.713 344.982 568.6 344.98H584C584.406 344.98 584.808 345.066 585.179 345.232C585.55 345.398 585.881 345.641 586.152 345.944C586.423 346.247 586.627 346.603 586.751 346.99C586.874 347.377 586.915 347.786 586.87 348.19L586.83 348.12Z" fill="#7E57C2"/>
<path d="M628.81 418.64L556.16 419.64C555.69 419.64 554.85 418.24 554.85 417.77V409.66C554.85 409.432 554.941 409.213 555.102 409.052C555.263 408.891 555.482 408.8 555.71 408.8H628.81C628.922 408.8 629.034 408.822 629.138 408.866C629.241 408.909 629.336 408.972 629.415 409.052C629.494 409.132 629.556 409.227 629.598 409.332C629.64 409.436 629.661 409.548 629.66 409.66V417.77C629.663 417.883 629.643 417.996 629.601 418.101C629.56 418.207 629.497 418.303 629.418 418.384C629.339 418.465 629.244 418.529 629.14 418.573C629.036 418.617 628.923 418.64 628.81 418.64V418.64Z" fill="#455A64"/>
<path d="M586.83 348.12L584.31 371C584.31 371.29 584.23 371.57 584.18 371.86C583.682 374.125 582.412 376.147 580.588 377.579C578.764 379.011 576.498 379.764 574.18 379.71H562.94C562.422 379.708 561.911 379.591 561.444 379.366C560.978 379.142 560.567 378.816 560.242 378.413C559.917 378.009 559.687 377.538 559.567 377.035C559.447 376.531 559.441 376.006 559.55 375.5L564.85 348.04C565.031 347.173 565.504 346.394 566.19 345.833C566.876 345.272 567.734 344.964 568.62 344.96H584C584.407 344.962 584.809 345.049 585.18 345.216C585.55 345.383 585.882 345.627 586.153 345.93C586.423 346.234 586.627 346.591 586.751 346.979C586.874 347.366 586.915 347.776 586.87 348.18L586.83 348.12Z" fill="#7E57C2"/>
<g style="mix-blend-mode:screen">
<path d="M708.23 409.24C708.305 408.62 708.226 407.992 708 407.41H537.69C537.465 407.992 537.383 408.62 537.45 409.24H708.23Z" fill="#7E57C2"/>
</g>
<path d="M550.85 340.56L540.6 372.41C539.779 374.953 539.641 377.667 540.2 380.28L544.59 400.64H604.15V341.74C604.15 340.722 603.745 339.745 603.025 339.025C602.305 338.305 601.328 337.9 600.31 337.9H554.5C553.689 337.902 552.899 338.161 552.244 338.639C551.589 339.116 551.101 339.789 550.85 340.56Z" fill="#7E57C2"/>
<path d="M562.94 379.65C562.423 379.65 561.912 379.534 561.445 379.31C560.978 379.087 560.567 378.762 560.242 378.359C559.917 377.957 559.686 377.487 559.567 376.983C559.447 376.48 559.441 375.956 559.55 375.45L564.85 347.99C565.029 347.122 565.502 346.342 566.188 345.781C566.875 345.22 567.733 344.912 568.62 344.91H584C584.409 344.915 584.812 345.006 585.183 345.178C585.553 345.351 585.883 345.6 586.15 345.91C586.421 346.214 586.625 346.571 586.749 346.959C586.873 347.346 586.914 347.755 586.87 348.16L584.31 371C584.31 371.29 584.23 371.58 584.18 371.86C583.674 374.121 582.402 376.139 580.58 377.571C578.758 379.003 576.497 379.762 574.18 379.72L562.94 379.65Z" fill="#455A64"/>
<path d="M539.94 375.9C540.036 374.777 540.264 373.669 540.62 372.6L549.52 344.96H554.61C555.192 344.958 555.767 345.084 556.296 345.327C556.824 345.571 557.293 345.927 557.67 346.37C558.04 346.809 558.305 347.325 558.445 347.882C558.585 348.438 558.597 349.019 558.48 349.58L553.57 372.82C553.364 373.691 552.872 374.468 552.172 375.027C551.472 375.585 550.605 375.893 549.71 375.9H539.94Z" fill="#455A64"/>
<path d="M708.31 411.77H537.67C536.37 411.77 536.37 407.05 537.67 407.05H708.31C709.62 407.05 709.62 411.77 708.31 411.77Z" fill="#263238"/>
<path d="M604.3 358.74C604.3 358.74 604.3 358.83 604.3 359V359.74C604.3 360.43 604.3 361.38 604.24 362.58C604.16 365.09 604.05 368.65 603.92 373.03C603.79 377.41 603.58 382.71 603.38 388.53C603.32 389.99 603.27 391.53 603.21 393.01C603.235 394.613 602.893 396.2 602.21 397.65C601.788 398.387 601.223 399.032 600.548 399.548C599.873 400.063 599.102 400.438 598.28 400.65C596.651 401.089 594.967 401.291 593.28 401.25L558.77 400.6L548.32 400.34L545.48 400.24H544.74C544.657 400.253 544.573 400.253 544.49 400.24C544.573 400.224 544.657 400.224 544.74 400.24H548.32L558.78 400.34L593.28 400.83C594.919 400.879 596.555 400.69 598.14 400.27C598.894 400.083 599.603 399.749 600.227 399.285C600.85 398.822 601.375 398.239 601.77 397.57C602.437 396.193 602.779 394.68 602.77 393.15C602.84 391.63 602.9 390.15 602.96 388.67C603.2 382.85 603.42 377.6 603.61 373.18C603.8 368.76 603.98 365.24 604.1 362.73C604.16 361.53 604.22 360.58 604.25 359.89C604.25 359.59 604.25 359.35 604.31 359.16C604.264 359.024 604.26 358.878 604.3 358.74Z" fill="#263238"/>
<path d="M555.67 400.88C555.52 400.88 555.41 395.88 555.41 389.71C555.41 383.54 555.52 378.53 555.67 378.53C555.82 378.53 555.93 383.53 555.93 389.71C555.93 395.89 555.81 400.88 555.67 400.88Z" fill="#263238"/>
<path d="M564.6 338.09C564.574 338.63 564.511 339.168 564.41 339.7C564.26 340.7 564.01 342.23 563.68 344.07C563.03 347.75 562.04 352.82 560.8 358.38C559.56 363.94 558.28 368.96 557.3 372.56C556.81 374.37 556.4 375.82 556.09 376.82C555.964 377.348 555.79 377.864 555.57 378.36C555.641 377.823 555.751 377.291 555.9 376.77C556.17 375.67 556.52 374.22 556.95 372.47C557.83 368.84 559.04 363.83 560.29 358.27C561.54 352.71 562.58 347.66 563.29 344L564.18 339.67C564.266 339.13 564.407 338.601 564.6 338.09V338.09Z" fill="#263238"/>
<path d="M584.35 388.74C584.678 388.663 584.992 388.534 585.28 388.36C585.589 388.128 585.813 387.801 585.92 387.43C586.042 386.944 585.978 386.431 585.74 385.99C585.589 385.736 585.371 385.529 585.11 385.391C584.849 385.253 584.555 385.191 584.26 385.21H581.99H576.8C576.414 385.216 576.044 385.366 575.763 385.631C575.482 385.895 575.31 386.255 575.28 386.64C575.222 386.999 575.29 387.368 575.472 387.683C575.654 387.998 575.94 388.241 576.28 388.37C576.44 388.43 576.609 388.46 576.78 388.46H578.45H580.45C581.66 388.46 582.64 388.51 583.31 388.54C583.663 388.525 584.016 388.559 584.36 388.64C584.016 388.721 583.663 388.755 583.31 388.74C582.64 388.74 581.66 388.8 580.45 388.82H578.45H576.8C576.576 388.822 576.353 388.788 576.14 388.72C575.692 388.56 575.312 388.251 575.063 387.846C574.814 387.44 574.71 386.962 574.77 386.49C574.793 385.975 575.014 385.489 575.387 385.134C575.759 384.778 576.255 384.579 576.77 384.58H581.96H584.23C584.592 384.568 584.951 384.654 585.269 384.831C585.586 385.007 585.849 385.266 586.03 385.58C586.179 385.861 586.261 386.172 586.27 386.49C586.288 386.764 586.254 387.039 586.17 387.3C586.025 387.717 585.738 388.071 585.36 388.3C585.132 388.447 584.871 388.533 584.6 388.55C584.44 388.78 584.35 388.75 584.35 388.74Z" fill="#7E57C2"/>
<path d="M697.09 364.2C697.09 364.35 690.09 364.46 681.51 364.46C672.93 364.46 665.93 364.35 665.93 364.2C665.93 364.05 672.93 363.94 681.51 363.94C690.09 363.94 697.09 364.06 697.09 364.2Z" fill="#263238"/>
<path d="M697.09 367.3C697.09 367.45 690.09 367.57 681.51 367.57C672.93 367.57 665.93 367.45 665.93 367.3C665.93 367.15 672.93 367.04 681.51 367.04C690.09 367.04 697.09 367.16 697.09 367.3Z" fill="#263238"/>
<path d="M697.09 370.41C697.09 370.55 690.09 370.67 681.51 370.67C672.93 370.67 665.93 370.55 665.93 370.41C665.93 370.27 672.93 370.15 681.51 370.15C690.09 370.15 697.09 370.26 697.09 370.41Z" fill="#263238"/>
<path d="M697.09 373.51C697.09 373.65 690.09 373.77 681.51 373.77C672.93 373.77 665.93 373.65 665.93 373.51C665.93 373.37 672.93 373.25 681.51 373.25C690.09 373.25 697.09 373.36 697.09 373.51Z" fill="#263238"/>
<path d="M697.09 376.61C697.09 376.75 690.09 376.87 681.51 376.87C672.93 376.87 665.93 376.75 665.93 376.61C665.93 376.47 672.93 376.35 681.51 376.35C690.09 376.35 697.09 376.46 697.09 376.61Z" fill="#263238"/>
<path d="M697.09 379.71C697.09 379.85 690.09 379.97 681.51 379.97C672.93 379.97 665.93 379.85 665.93 379.71C665.93 379.57 672.93 379.45 681.51 379.45C690.09 379.45 697.09 379.56 697.09 379.71Z" fill="#263238"/>
<path d="M697.09 382.81C697.09 382.95 690.09 383.07 681.51 383.07C672.93 383.07 665.93 382.95 665.93 382.81C665.93 382.67 672.93 382.55 681.51 382.55C690.09 382.55 697.09 382.66 697.09 382.81Z" fill="#263238"/>
<path d="M520.2 456.46C510.85 456.46 502.98 447.46 502.98 438.08C502.98 428.7 511.21 420.84 520.56 420.84L671.19 414C675.013 413.79 678.817 414.669 682.161 416.535C685.505 418.4 688.251 421.176 690.08 424.54C692.309 428.834 692.906 433.79 691.76 438.49C687.76 456.69 672.65 456.49 666.76 456.08C660.87 455.67 520.2 456.46 520.2 456.46Z" fill="#263238"/>
<path d="M520.2 452.04C527.971 452.04 534.27 445.741 534.27 437.97C534.27 430.199 527.971 423.9 520.2 423.9C512.429 423.9 506.13 430.199 506.13 437.97C506.13 445.741 512.429 452.04 520.2 452.04Z" fill="#455A64"/>
<path d="M670.24 453.31C680.292 453.31 688.44 445.162 688.44 435.11C688.44 425.058 680.292 416.91 670.24 416.91C660.188 416.91 652.04 425.058 652.04 435.11C652.04 445.162 660.188 453.31 670.24 453.31Z" fill="#455A64"/>
<path d="M672.27 417.49L671.88 417.55L670.73 417.68L666.31 418.12C662.46 418.5 656.9 419 650.01 419.56C636.25 420.69 617.21 422 596.16 422.93C575.11 423.86 556.01 424.23 542.16 424.31C535.25 424.31 529.67 424.31 525.8 424.31L521.36 424.25H520.2C520.07 424.265 519.94 424.265 519.81 424.25H520.2H521.36H525.8L542.16 424.09C555.96 423.91 575.04 423.48 596.09 422.56C617.14 421.64 636.18 420.38 649.94 419.34L666.25 418.07L670.68 417.72L671.84 417.65C671.975 417.577 672.12 417.523 672.27 417.49V417.49Z" fill="#455A64"/>
<path d="M666.48 451.59C666.48 451.73 633.73 451.85 593.33 451.85C552.93 451.85 520.18 451.73 520.18 451.59C520.18 451.45 552.92 451.33 593.33 451.33C633.74 451.33 666.48 451.44 666.48 451.59Z" fill="#455A64"/>
<path d="M545.29 400.39C544.893 399.229 544.559 398.047 544.29 396.85C543.68 394.66 542.79 391.64 541.89 388.27C541.078 385.406 540.45 382.494 540.01 379.55C539.895 378.651 539.842 377.746 539.85 376.84C539.842 376.502 539.886 376.165 539.98 375.84C540.06 375.84 539.98 377.25 540.37 379.48C540.76 381.71 541.49 384.78 542.37 388.13C543.25 391.48 544.11 394.52 544.63 396.75C544.89 397.86 545.09 398.75 545.19 399.39C545.272 399.717 545.305 400.054 545.29 400.39V400.39Z" fill="#7E57C2"/>
<path d="M660.22 446.35C659.841 446.167 659.488 445.935 659.17 445.66C658.282 444.946 657.495 444.115 656.83 443.19C655.83 441.812 655.088 440.263 654.64 438.62C654.057 436.606 653.961 434.481 654.361 432.422C654.761 430.364 655.645 428.43 656.94 426.78C657.973 425.429 659.24 424.274 660.68 423.37C661.648 422.762 662.695 422.288 663.79 421.96C664.184 421.825 664.594 421.741 665.01 421.71C663.563 422.219 662.177 422.89 660.88 423.71C659.512 424.632 658.308 425.778 657.32 427.1C656.093 428.705 655.254 430.572 654.869 432.555C654.484 434.538 654.563 436.583 655.1 438.53C655.502 440.125 656.179 441.638 657.1 443C658.005 444.236 659.052 445.36 660.22 446.35Z" fill="#FAFAFA"/>
<path d="M581.16 360.84C578.656 362.971 576.046 364.973 573.34 366.84C570.735 368.834 568.024 370.687 565.22 372.39C567.724 370.259 570.334 368.257 573.04 366.39C575.645 364.396 578.356 362.543 581.16 360.84V360.84Z" fill="white"/>
<path d="M582.36 356.59C580.194 358.419 577.92 360.115 575.55 361.67C573.277 363.364 570.903 364.917 568.44 366.32C570.609 364.495 572.882 362.799 575.25 361.24C577.524 359.547 579.898 357.995 582.36 356.59V356.59Z" fill="white"/>
<path d="M553 363.15C551.965 364.194 550.807 365.108 549.55 365.87C548.391 366.781 547.129 367.553 545.79 368.17C546.836 367.134 547.996 366.221 549.25 365.45C550.405 364.538 551.664 363.766 553 363.15V363.15Z" fill="white"/>
<path d="M555.05 359.17C552.53 361.559 549.78 363.693 546.84 365.54C549.355 363.145 552.105 361.011 555.05 359.17Z" fill="white"/>
<path d="M586.45 383.5C582.731 383.847 578.989 383.847 575.27 383.5C578.989 383.153 582.731 383.153 586.45 383.5V383.5Z" fill="#7E57C2"/>
<path d="M517.4 449.91C516.983 449.884 516.572 449.796 516.18 449.65C515.084 449.301 514.047 448.792 513.1 448.14C511.693 447.167 510.488 445.931 509.55 444.5C508.365 442.752 507.662 440.721 507.513 438.614C507.363 436.507 507.773 434.398 508.7 432.5C509.422 430.95 510.441 429.557 511.7 428.4C512.544 427.618 513.502 426.967 514.54 426.47C514.911 426.278 515.304 426.134 515.71 426.04C514.351 426.75 513.091 427.634 511.96 428.67C510.776 429.816 509.816 431.172 509.13 432.67C508.26 434.502 507.878 436.528 508.02 438.551C508.161 440.575 508.823 442.527 509.94 444.22C510.828 445.621 511.971 446.842 513.31 447.82C514.575 448.695 515.95 449.398 517.4 449.91Z" fill="#FAFAFA"/>
<path d="M538.74 394.4C538.74 394.54 533.32 394.66 526.63 394.66C519.94 394.66 514.51 394.54 514.51 394.4C514.51 394.26 519.93 394.14 526.63 394.14C533.33 394.14 538.74 394.26 538.74 394.4Z" fill="white"/>
<path d="M429.52 98.1L420.4 78.51C419.729 77.0692 418.781 75.7748 417.61 74.7005C416.439 73.6262 415.067 72.7932 413.574 72.249C412.081 71.7049 410.495 71.4602 408.907 71.529C407.319 71.5978 405.761 71.9787 404.32 72.65V72.65C402.879 73.3209 401.585 74.269 400.51 75.4402C399.436 76.6115 398.603 77.9829 398.059 79.4761C397.515 80.9693 397.27 82.5551 397.339 84.1429C397.408 85.7307 397.789 87.2894 398.46 88.73L407.59 108.31C407.63 108.401 407.688 108.484 407.76 108.552C407.833 108.62 407.919 108.672 408.012 108.706C408.106 108.74 408.205 108.754 408.305 108.748C408.404 108.742 408.501 108.715 408.59 108.67L429.19 99.07C429.361 98.984 429.492 98.8341 429.554 98.6526C429.616 98.4711 429.603 98.2726 429.52 98.1V98.1Z" fill="#7E57C2"/>
<path d="M79.9 361.59H74.76V456.08H79.9V361.59Z" fill="#E0E0E0"/>
<path d="M82.53 358.35C82.53 359.375 82.2262 360.376 81.657 361.228C81.0878 362.08 80.2788 362.744 79.3323 363.136C78.3858 363.528 77.3443 363.63 76.3394 363.43C75.3346 363.231 74.4116 362.737 73.6872 362.013C72.9627 361.288 72.4694 360.365 72.2695 359.361C72.0697 358.356 72.1722 357.314 72.5643 356.368C72.9564 355.421 73.6203 354.612 74.4721 354.043C75.324 353.474 76.3255 353.17 77.35 353.17C78.7238 353.17 80.0414 353.716 81.0128 354.687C81.9842 355.659 82.53 356.976 82.53 358.35V358.35Z" fill="#7E57C2"/>
<path d="M182.04 361.59H176.9V456.08H182.04V361.59Z" fill="#E0E0E0"/>
<path d="M184.67 358.35C184.67 359.375 184.366 360.376 183.797 361.228C183.228 362.08 182.419 362.744 181.472 363.136C180.526 363.528 179.484 363.63 178.479 363.43C177.475 363.231 176.552 362.737 175.827 362.013C175.103 361.288 174.609 360.365 174.41 359.361C174.21 358.356 174.312 357.314 174.704 356.368C175.096 355.421 175.76 354.612 176.612 354.043C177.464 353.474 178.466 353.17 179.49 353.17C180.864 353.17 182.181 353.716 183.153 354.687C184.124 355.659 184.67 356.976 184.67 358.35Z" fill="#7E57C2"/>
<path d="M191.78 370.71H60.09V394.27H191.78V370.71Z" fill="#7E57C2"/>
<path d="M74.99 370.7L74.76 371.1L61.23 394.27H60.09V370.7H74.99Z" fill="#F5F5F5"/>
<path d="M108.28 370.7L94.5 394.27H76.51L81.98 384.91L90.28 370.7H108.28Z" fill="#F5F5F5"/>
<path d="M141.55 370.7L127.78 394.27H109.78L123.55 370.7H141.55Z" fill="#F5F5F5"/>
<path d="M174.81 370.71L161.04 394.27H143.05L156.82 370.71H174.81Z" fill="#F5F5F5"/>
<path d="M191.78 370.71V394.27H176.32L190.1 370.71H191.78Z" fill="#F5F5F5"/>
<path d="M191.78 407.1H60.09V430.66H191.78V407.1Z" fill="#7E57C2"/>
<path d="M74.99 407.11L74.76 407.5L61.23 430.67H60.09V407.11H74.99Z" fill="#F5F5F5"/>
<path d="M108.28 407.11L94.5 430.67H76.51L81.98 421.31L90.28 407.11H108.28Z" fill="#F5F5F5"/>
<path d="M141.55 407.11L127.78 430.67H109.78L123.55 407.11H141.55Z" fill="#F5F5F5"/>
<path d="M174.81 407.11L161.04 430.67H143.05L156.82 407.11H174.81Z" fill="#F5F5F5"/>
<path d="M191.78 407.11V430.67H176.32L190.1 407.11H191.78Z" fill="#F5F5F5"/>
<path d="M191.78 394.27C191.78 394.27 191.78 394.13 191.78 393.86C191.78 393.59 191.78 393.19 191.78 392.68C191.78 391.63 191.78 390.1 191.78 388.1C191.78 384.1 191.73 378.22 191.7 370.71L191.84 370.84L60.1 371L60.36 370.74V394.3L60.1 394.04L153.85 394.15L181.65 394.23H189.16H191.11H191.79H191.14H189.22H181.77L154.03 394.3L60.1 394.41H59.84V370.44H60.11L191.79 370.57H191.92V370.71C191.92 378.25 191.86 384.15 191.85 388.18C191.85 390.18 191.85 391.69 191.85 392.73C191.85 393.23 191.85 393.61 191.85 393.89C191.85 394.17 191.78 394.27 191.78 394.27Z" fill="#263238"/>
<path d="M191.78 430.67C191.78 430.67 191.78 430.52 191.78 430.26C191.78 430 191.78 429.59 191.78 429.08C191.78 428.03 191.78 426.5 191.78 424.5C191.78 420.5 191.73 414.62 191.7 407.1L191.84 407.24L60.16 407.36L60.42 407.1V430.67L60.16 430.41L153.91 430.52L181.71 430.6H189.22H191.17C191.61 430.6 191.85 430.6 191.85 430.6H191.2H189.28H181.83L154.09 430.68L60.16 430.79H59.9V406.84H60.17L191.85 406.97H191.98V407.1C191.98 414.65 191.92 420.55 191.91 424.58C191.91 426.58 191.91 428.09 191.91 429.13C191.91 429.63 191.91 430.01 191.91 430.29C191.91 430.57 191.78 430.67 191.78 430.67Z" fill="#263238"/>
<path d="M701.78 456.46C701.78 456.6 556.36 456.72 377.02 456.72C197.68 456.72 52.22 456.6 52.22 456.46C52.22 456.32 197.61 456.2 377.02 456.2C556.43 456.2 701.78 456.31 701.78 456.46Z" fill="#263238"/>
</svg>
