<svg width="652" height="652" viewBox="0 0 652 652" fill="none" xmlns="http://www.w3.org/2000/svg">
<g clip-path="url(#clip0)">
<path d="M652 498.65H0V498.976H652V498.65Z" fill="#EBEBEB"/>
<path d="M145.605 509.59H102.416V509.916H145.605V509.59Z" fill="#EBEBEB"/>
<path d="M213.204 518.992H173.862V519.318H213.204V518.992Z" fill="#EBEBEB"/>
<path d="M124.01 521.691H74.1324V522.017H124.01V521.691Z" fill="#EBEBEB"/>
<path d="M586.67 520.987H565.936V521.313H586.67V520.987Z" fill="#EBEBEB"/>
<path d="M561.75 520.987H510.477V521.313H561.75V520.987Z" fill="#EBEBEB"/>
<path d="M365.55 509.421H326V509.747H365.55V509.421Z" fill="#EBEBEB"/>
<path d="M465.228 509.421H371.21V509.747H465.228V509.421Z" fill="#EBEBEB"/>
<path d="M471.957 395.699L451.98 375.708L424.739 402.949L443.06 432.172L471.957 395.699Z" fill="#E0E0E0"/>
<path d="M415.806 358.743H392.843V498.637H415.806V358.743Z" fill="#F5F5F5"/>
<path d="M415.806 416.876H392.843V433.658L415.806 428.703V416.876Z" fill="#EBEBEB"/>
<path d="M415.794 498.65H423.448V358.756H415.794V498.65Z" fill="#EBEBEB"/>
<path d="M175.258 358.743H152.294V498.637H175.258V358.743Z" fill="#F5F5F5"/>
<path d="M175.245 416.876H152.294V433.658L175.245 428.703V416.876Z" fill="#EBEBEB"/>
<path d="M175.244 498.65H182.899L182.899 358.756H175.244L175.244 498.65Z" fill="#EBEBEB"/>
<path d="M427.855 379.255H134.781V422.313H427.855V379.255Z" fill="#666666"/>
<path d="M427.855 422.3H432.159V379.242H427.855V422.3Z" fill="#EBEBEB"/>
<path d="M316.52 335.35H259.222L218.707 375.865V433.163L259.222 473.678H316.52L357.035 433.163V375.865L316.52 335.35Z" fill="#FAFAFA"/>
<path d="M313.899 341.674H261.843L225.031 378.486V430.542L261.843 467.354H313.899L350.711 430.542V378.486L313.899 341.674Z" fill="#E0E0E0"/>
<path d="M237.576 410.525L244.904 409.873C244.965 411.228 245.293 412.558 245.869 413.785C246.171 414.432 246.652 414.978 247.256 415.36C247.859 415.741 248.559 415.941 249.273 415.937C249.763 415.976 250.256 415.897 250.71 415.707C251.164 415.516 251.565 415.219 251.881 414.841C252.487 414.11 252.807 413.183 252.78 412.233C252.787 411.333 252.483 410.458 251.92 409.756C250.821 408.735 249.471 408.024 248.008 407.696C245.233 406.993 242.723 405.497 240.784 403.392C239.267 401.437 238.495 399.006 238.606 396.533C238.588 394.734 238.966 392.954 239.714 391.317C240.425 389.738 241.592 388.407 243.066 387.497C244.938 386.468 247.061 385.985 249.194 386.101C250.517 386.01 251.845 386.188 253.097 386.622C254.35 387.057 255.502 387.74 256.484 388.631C258.153 390.313 259.092 392.999 259.47 396.677L252.207 397.29C252.138 396.034 251.718 394.823 250.994 393.795C250.67 393.428 250.267 393.14 249.815 392.953C249.363 392.765 248.874 392.683 248.386 392.713C248.01 392.687 247.633 392.747 247.283 392.887C246.933 393.027 246.62 393.244 246.365 393.521C245.908 394.074 245.667 394.773 245.687 395.49C245.68 396.05 245.879 396.593 246.247 397.016C246.979 397.684 247.882 398.135 248.855 398.32C251.415 398.984 253.856 400.039 256.092 401.449C257.494 402.435 258.595 403.789 259.274 405.361C259.952 407.016 260.289 408.79 260.265 410.577C260.296 412.743 259.851 414.888 258.961 416.863C258.184 418.659 256.89 420.184 255.245 421.244C253.426 422.297 251.346 422.812 249.246 422.731C245.013 422.731 242.079 421.566 240.444 419.236C238.694 416.657 237.7 413.64 237.576 410.525V410.525Z" fill="white"/>
<path d="M262.326 386.766H285.798V395.542H277.974V422.261H270.267V395.542H262.443L262.326 386.766Z" fill="white"/>
<path d="M287.063 404.54C287.063 398.75 288.197 394.238 290.466 391.004C291.564 389.511 292.996 388.296 294.648 387.455C296.3 386.615 298.125 386.174 299.979 386.166C301.832 386.159 303.661 386.585 305.32 387.412C306.979 388.238 308.421 389.442 309.53 390.926C311.817 394.099 312.96 398.537 312.96 404.24C313.069 407.703 312.57 411.159 311.486 414.45C310.673 416.87 309.201 419.015 307.235 420.644C305.254 422.163 302.806 422.947 300.311 422.861C297.843 422.96 295.406 422.29 293.335 420.944C291.285 419.404 289.727 417.302 288.849 414.894C287.585 411.592 286.979 408.074 287.063 404.54ZM294.769 404.54C294.769 408.13 295.239 410.703 296.178 412.26C296.542 412.959 297.092 413.546 297.767 413.955C298.442 414.364 299.216 414.58 300.005 414.58C300.794 414.58 301.568 414.364 302.243 413.955C302.917 413.546 303.467 412.959 303.832 412.26C304.745 410.721 305.136 407.969 305.136 404.005C305.31 401.482 304.824 398.956 303.728 396.677C303.35 395.97 302.785 395.381 302.095 394.974C301.405 394.567 300.617 394.358 299.816 394.369C299.036 394.378 298.275 394.602 297.614 395.016C296.954 395.43 296.421 396.018 296.073 396.716C295.204 398.35 294.769 400.976 294.769 404.592V404.54Z" fill="white"/>
<path d="M317.016 386.766H329.821C331.02 386.687 332.22 386.904 333.314 387.4C334.408 387.896 335.363 388.655 336.093 389.609C337.62 392.008 338.346 394.83 338.166 397.668C338.342 400.639 337.546 403.587 335.897 406.066C335.077 407.096 334.017 407.91 332.811 408.437C331.604 408.964 330.286 409.189 328.973 409.091H324.696V422.261H316.963L317.016 386.766ZM324.696 401.906H326.587C327.158 401.968 327.737 401.901 328.278 401.709C328.82 401.517 329.312 401.206 329.717 400.797C330.341 399.995 330.66 398.997 330.616 397.981C330.679 396.975 330.434 395.974 329.912 395.112C329.56 394.687 329.107 394.358 328.594 394.155C328.081 393.952 327.525 393.882 326.978 393.951H324.696V401.906Z" fill="white"/>
<path d="M536.4 133.986C535.039 133.992 533.683 134.154 532.358 134.468C530.637 130.556 526.816 128.118 521.665 128.118C517.721 128.214 513.892 129.461 510.646 131.704V131.704C508.456 124.349 501.896 119.433 492.742 119.433C479.702 119.433 466.076 129.396 461.146 142.123C459.941 141.84 458.707 141.7 457.469 141.706H456.243C445.016 142.462 445.811 159.414 457.117 159.414H537.248C538.635 159.419 540.004 159.096 541.243 158.473C542.482 157.85 543.557 156.944 544.381 155.828C545.764 153.95 546.818 151.852 547.497 149.621C549.975 140.988 545.072 133.986 536.4 133.986Z" fill="#F0F0F0"/>
<path d="M147.343 18.6513C145.596 7.07176 136.363 -1 122.867 -1C111.809 -1 100.412 4.4116 91.9231 12.7442C89.447 10.5972 86.2533 9.4612 82.9776 9.5624C73.6149 9.5624 63.7958 17.1517 61.0313 26.5144C60.6211 27.8963 60.3889 29.3248 60.3402 30.7654V30.7654L60.1446 30.8958C52.3988 36.1118 56.2326 48.3564 65.6736 48.3564H148.178C149.752 48.3691 151.304 47.9881 152.693 47.2479C154.082 46.5077 155.265 45.4319 156.132 44.1184C157.421 42.1514 158.418 40.0079 159.092 37.7549C161.974 27.7923 156.797 19.5902 147.343 18.6513Z" fill="#F0F0F0"/>
<path d="M321.932 188.167C319.532 172.245 306.844 161.148 288.288 161.148C273.071 161.148 257.41 168.594 245.752 180.043C242.358 177.084 237.969 175.518 233.468 175.662C220.611 175.662 207.088 186.094 203.294 198.964C202.729 200.863 202.41 202.826 202.342 204.806L202.081 204.976C191.401 212.239 196.695 228.982 209.605 228.982H318.176C322.578 229.014 326.874 227.629 330.429 225.032C333.984 222.435 336.61 218.764 337.919 214.56V214.404C342.065 200.725 334.932 189.445 321.932 188.167Z" fill="#F5F5F5"/>
<path d="M167.877 168.112H102.416V138.563L167.877 60.7533H199.173V140.297H215.408V168.177H199.199V192.353H167.903L167.877 168.112ZM167.877 140.232V99.5343L133.295 140.232H167.877Z" fill="#FAFAFA"/>
<path d="M475.843 60.7533V192.288H439.448V106.093C434.139 110.217 428.464 113.849 422.496 116.943C415.83 120.158 408.908 122.815 401.802 124.884V95.4267C414.033 91.4712 423.531 86.7333 430.294 81.2131C437.065 75.6797 442.495 68.6849 446.177 60.7533H475.843Z" fill="#FAFAFA"/>
<path d="M406.613 225.84C406.04 226.87 405.596 227.613 405.088 228.448C404.579 229.282 404.071 230.065 403.562 230.873C402.532 232.464 401.436 234.003 400.328 235.542C398.092 238.627 395.694 241.591 393.143 244.422C390.546 247.326 387.753 250.049 384.784 252.572C381.699 255.246 378.348 257.597 374.783 259.587C373.661 260.242 372.488 260.804 371.275 261.27C370.007 261.753 368.698 262.119 367.363 262.365C364.983 262.777 362.56 262.89 360.152 262.704C355.984 262.34 351.889 261.392 347.986 259.887C344.383 258.514 340.895 256.857 337.554 254.932C334.27 253.058 331.131 250.939 328.165 248.595C327.325 247.913 326.755 246.956 326.556 245.893C326.356 244.83 326.541 243.731 327.076 242.791C327.612 241.852 328.463 241.133 329.48 240.763C330.496 240.393 331.61 240.396 332.624 240.771L332.859 240.862C338.999 243.317 345.338 245.241 351.806 246.613C354.656 247.207 357.569 247.448 360.478 247.33C361.614 247.281 362.737 247.075 363.816 246.717C364.219 246.585 364.607 246.415 364.977 246.208C365.342 246 365.407 245.935 366.15 245.426C371.141 241.757 375.619 237.438 379.464 232.582C381.511 230.078 383.506 227.483 385.397 224.758C386.362 223.454 387.275 222.058 388.201 220.702L389.505 218.668L390.731 216.751L390.939 216.425C392.23 214.451 394.235 213.053 396.534 212.525C398.833 211.997 401.247 212.379 403.27 213.591C405.293 214.803 406.769 216.752 407.387 219.028C408.006 221.304 407.719 223.731 406.587 225.801L406.613 225.84Z" fill="#57577E"/>
<path d="M334.789 241.84L324.787 235.216L320.549 248.516C322.553 249.573 324.805 250.07 327.068 249.955C329.33 249.84 331.52 249.118 333.407 247.864L334.789 241.84Z" fill="#57577E"/>
<path d="M315.568 237.211L314.786 241.449C314.644 242.2 314.718 242.976 315 243.687C315.281 244.398 315.759 245.015 316.377 245.465L320.51 248.516L324.748 235.216L320.732 234.042C320.184 233.881 319.609 233.837 319.043 233.912C318.477 233.987 317.933 234.18 317.446 234.479C316.959 234.778 316.541 235.175 316.217 235.646C315.894 236.116 315.673 236.649 315.568 237.211Z" fill="#57577E"/>
<path d="M406.926 204.65C396.742 206.254 386.441 218.211 380.247 229.361C384.314 236.452 390.477 242.109 397.89 245.556C397.89 245.556 409.965 234.133 414.842 225.683C419.719 217.233 416.511 203.124 406.926 204.65Z" fill="#7E57C2"/>
<path opacity="0.2" d="M406.926 204.65C396.742 206.254 386.441 218.211 380.247 229.361C384.314 236.452 390.477 242.109 397.89 245.556C397.89 245.556 409.965 234.133 414.842 225.683C419.719 217.233 416.511 203.124 406.926 204.65Z" fill="black"/>
<path d="M380.638 226.805C379.694 227.873 378.956 229.107 378.46 230.443C381.003 234.355 387.04 244.787 398.307 247.004C399.402 246.392 400.24 245.406 400.667 244.226C400.667 244.226 387.705 237.837 380.638 226.805Z" fill="#FAFAFA"/>
<path d="M447.963 204.298C435.652 202.237 423.117 201.877 410.708 203.228C401.45 204.415 394.538 212.93 394.604 222.254C394.65 231.982 395.522 241.688 397.212 251.268C393.808 269.198 392.582 293.57 396.168 298.942L460.312 299.842C463.064 292.174 459.608 258.987 463.272 224.34C463.769 219.675 462.459 214.997 459.611 211.269C456.764 207.54 452.595 205.045 447.963 204.298Z" fill="#7E57C2"/>
<path opacity="0.2" d="M423.8 299.02C420.136 270.163 423.8 221.902 423.8 221.406L425.104 221.511C425.104 221.993 421.466 270.124 425.104 298.851L423.8 299.02Z" fill="black"/>
<path d="M416.824 204.128C419.027 203.307 418.206 202.081 418.206 202.081C418.206 202.081 408.191 202.081 401.254 203.946C400.198 205.067 401.332 206.554 401.332 206.554C401.332 206.554 410.265 206.58 416.824 204.128Z" fill="#FAFAFA"/>
<path opacity="0.2" d="M420.918 202.12C420.918 202.12 416.785 209.762 422.314 216.712C417.932 216.712 415.102 224.184 415.102 224.184C415.102 224.184 406.548 212.291 417.489 202.785C418.102 201.833 420.918 202.12 420.918 202.12Z" fill="black"/>
<path d="M416.498 205.823C415.428 210.492 424.83 219.294 424.83 219.294C424.83 219.294 441.456 211.261 442.512 206.658L416.498 205.823Z" fill="white"/>
<path opacity="0.2" d="M454.027 233.142C452.253 236.559 454.613 251.398 461.46 257.67C461.538 251.542 461.72 245.035 462.112 238.345L454.027 233.142Z" fill="black"/>
<path d="M439.044 178.974L421.883 190.241C423.917 195.222 424.869 200.412 419.001 202.811C418.248 203.114 417.602 203.635 417.147 204.308C416.693 204.981 416.45 205.774 416.45 206.586C416.45 207.398 416.693 208.192 417.147 208.864C417.602 209.537 418.248 210.058 419.001 210.361C420.73 210.99 422.538 211.372 424.374 211.496C429.89 212.031 435.45 211.133 440.517 208.888C441.051 208.621 441.52 208.241 441.892 207.775C442.264 207.309 442.53 206.767 442.672 206.187C442.813 205.608 442.827 205.004 442.711 204.419C442.596 203.834 442.355 203.281 442.004 202.798C437.505 196.435 438.053 185.377 439.044 178.974Z" fill="#57577E"/>
<path opacity="0.2" d="M432.054 183.564L421.896 190.228C422.467 191.59 422.904 193.005 423.2 194.452C427.256 194.218 432.55 191.01 432.654 187.659C432.755 186.266 432.55 184.869 432.054 183.564V183.564Z" fill="black"/>
<path d="M419.992 157.484C424.361 157.393 425.547 163.665 423.904 165.791C427.216 166.508 428.82 170.381 427.816 172.311C426.812 174.24 422.978 176.418 419.562 175.558C413.707 174.097 412.703 169.233 414.346 167.016C411.216 164.434 412.807 156.48 419.992 157.484Z" fill="#FAFAFA"/>
<path opacity="0.2" d="M419.992 157.484C424.361 157.393 425.547 163.665 423.904 165.791C427.216 166.508 428.82 170.381 427.816 172.311C426.812 174.24 422.978 176.418 419.562 175.558C413.707 174.097 412.703 169.233 414.346 167.016C411.216 164.434 412.807 156.48 419.992 157.484Z" fill="white"/>
<path d="M444.664 167.825C443.36 178.113 443.112 184.203 437.544 189.132C429.159 196.526 416.68 190.84 414.907 180.33C413.29 170.876 415.702 155.632 426.095 152.268C428.398 151.535 430.848 151.396 433.219 151.863C435.59 152.331 437.804 153.39 439.656 154.941C441.509 156.493 442.939 158.488 443.814 160.74C444.69 162.992 444.982 165.429 444.664 167.825V167.825Z" fill="#57577E"/>
<path d="M443.425 175.688C439.057 175.688 438.092 169.324 439.761 167.264C436.475 166.417 435.014 162.492 436.031 160.562C437.049 158.632 441 156.65 444.39 157.602C450.193 159.271 451.04 164.122 449.358 166.325C452.488 169.064 450.571 176.914 443.425 175.688Z" fill="#FAFAFA"/>
<path opacity="0.2" d="M443.425 175.688C439.057 175.688 438.092 169.324 439.761 167.264C436.475 166.417 435.014 162.492 436.031 160.562C437.049 158.632 441 156.65 444.39 157.602C450.193 159.271 451.04 164.122 449.358 166.325C452.488 169.064 450.571 176.914 443.425 175.688Z" fill="white"/>
<path opacity="0.2" d="M432.928 169.52C433.453 169.377 434 169.34 434.54 169.409C435.079 169.478 435.599 169.654 436.071 169.924C435.007 169.992 433.94 169.855 432.928 169.52Z" fill="black"/>
<path opacity="0.2" d="M432.928 170.224C433.425 170.196 433.921 170.278 434.383 170.462C434.845 170.647 435.261 170.931 435.601 171.294C434.645 171.129 433.734 170.764 432.928 170.224V170.224Z" fill="black"/>
<path opacity="0.2" d="M416.589 168.725C416.469 168.654 416.336 168.608 416.198 168.59C416.06 168.572 415.919 168.582 415.785 168.62C415.651 168.658 415.526 168.722 415.418 168.81C415.309 168.897 415.22 169.006 415.155 169.129C415.667 169.189 416.183 169.043 416.589 168.725Z" fill="black"/>
<path opacity="0.2" d="M416.602 169.52C416.602 169.52 415.807 169.403 415.389 170.589C415.888 170.357 416.309 169.986 416.602 169.52Z" fill="black"/>
<path d="M447.768 178.309C446.571 180.461 444.605 182.082 442.265 182.847C439.292 183.708 438.105 180.735 439.174 177.631C440.152 174.853 442.851 171.046 445.694 171.554C448.537 172.063 449.332 175.558 447.768 178.309Z" fill="#57577E"/>
<path d="M430.842 169.52C430.842 170.355 430.307 171.007 429.746 170.968C429.186 170.928 428.794 170.211 428.86 169.364C428.925 168.516 429.394 167.877 429.955 167.916C430.516 167.955 430.907 168.699 430.842 169.52Z" fill="#FAFAFA"/>
<path d="M426.669 184.842C425.599 185.051 424.621 184.633 424.491 183.929C424.361 183.225 425.143 182.495 426.212 182.286C427.282 182.078 428.26 182.495 428.39 183.199C428.52 183.903 427.712 184.647 426.669 184.842Z" fill="#FAFAFA"/>
<path d="M419.432 168.62C419.432 169.455 418.884 170.107 418.336 170.068C417.788 170.029 417.371 169.311 417.436 168.464C417.502 167.616 417.984 166.977 418.532 167.016C419.079 167.055 419.484 167.773 419.432 168.62Z" fill="#FAFAFA"/>
<path d="M422.027 177.018C415.924 177.435 414.75 180.408 415.82 181.712C416.889 183.016 419.497 181.712 419.497 181.712C419.497 181.712 424.439 182.769 425.886 181.191C428.221 182.182 431.781 180.33 430.776 178.922C429.772 177.514 427.256 176.653 422.027 177.018Z" fill="#FAFAFA"/>
<path opacity="0.2" d="M422.027 177.018C415.924 177.435 414.75 180.408 415.82 181.712C416.889 183.016 419.497 181.712 419.497 181.712C419.497 181.712 424.439 182.769 425.886 181.191C428.221 182.182 431.781 180.33 430.776 178.922C429.772 177.514 427.256 176.653 422.027 177.018Z" fill="white"/>
<path d="M422.209 169.52C421.037 172.017 419.523 174.338 417.71 176.418C418.258 176.871 418.897 177.2 419.583 177.382C420.27 177.565 420.988 177.596 421.688 177.474L422.209 169.52Z" fill="#B3B3D3"/>
<path d="M432.68 165.139C432.763 165.128 432.843 165.102 432.915 165.06C432.97 165.025 433.018 164.979 433.055 164.924C433.092 164.87 433.118 164.809 433.131 164.745C433.145 164.681 433.145 164.614 433.133 164.55C433.12 164.485 433.095 164.424 433.058 164.369C432.642 163.694 432.069 163.13 431.388 162.723C430.707 162.317 429.938 162.081 429.146 162.035C429.015 162.035 428.889 162.087 428.796 162.18C428.703 162.273 428.651 162.399 428.651 162.531C428.651 162.662 428.703 162.788 428.796 162.881C428.889 162.974 429.015 163.026 429.146 163.026V163.026C429.77 163.071 430.374 163.266 430.907 163.592C431.44 163.919 431.887 164.369 432.211 164.904C432.259 164.983 432.329 165.047 432.412 165.089C432.495 165.13 432.588 165.147 432.68 165.139V165.139Z" fill="#FAFAFA"/>
<path d="M415.689 164.161C415.771 164.159 415.852 164.138 415.924 164.1C415.997 164.061 416.059 164.006 416.107 163.939C416.44 163.417 416.893 162.981 417.428 162.668C417.963 162.355 418.565 162.174 419.184 162.139C419.315 162.139 419.441 162.087 419.534 161.994C419.627 161.901 419.68 161.775 419.68 161.644C419.68 161.512 419.627 161.386 419.534 161.294C419.441 161.201 419.315 161.148 419.184 161.148C418.4 161.18 417.634 161.4 416.953 161.791C416.272 162.181 415.695 162.73 415.272 163.391C415.236 163.445 415.211 163.505 415.199 163.569C415.186 163.632 415.187 163.697 415.2 163.761C415.214 163.824 415.239 163.884 415.276 163.937C415.313 163.99 415.361 164.035 415.415 164.069C415.494 164.13 415.59 164.163 415.689 164.161V164.161Z" fill="#FAFAFA"/>
<path d="M432.524 405.283C435.445 358.235 434.793 309.961 429.72 299.451L396.142 298.942C396.142 298.942 400.328 377.599 401.632 408.934C403.001 441.534 405.922 526.294 405.922 526.294L425.352 526.529C425.352 526.529 436.749 441.678 432.524 405.283Z" fill="#E0E0E0"/>
<path opacity="0.2" d="M433.971 333.368C422.509 345.886 427.869 380.546 432.863 399.637C434.232 375.761 434.597 351.989 433.971 333.368Z" fill="black"/>
<path d="M425.104 528.981L408.022 528.759C406.94 528.704 405.872 529.022 404.996 529.659C400.041 533.571 396.273 533.688 390.652 534.692C383.911 535.905 387.249 542.686 392.217 542.764C400.432 542.894 399.741 542.594 406.757 542.699L411.608 542.764L413.798 540.534L415.741 542.764H424.713C424.946 542.769 425.177 542.724 425.392 542.633C425.606 542.542 425.799 542.406 425.956 542.234C426.114 542.063 426.234 541.86 426.307 541.639C426.381 541.417 426.406 541.183 426.382 540.951L425.104 528.981Z" fill="#FAFAFA"/>
<path d="M426.408 530.728C426.108 530.728 403.992 530.024 403.992 530.024L403.093 522.083L427.621 522.63L426.408 530.728Z" fill="#7E57C2"/>
<path d="M471.957 405.283C468.358 358.235 466.832 310.352 460.312 299.842L419.823 299.32C419.823 299.32 435.927 377.56 441.587 408.934C447.468 441.534 463.298 526.294 463.298 526.294L482.767 526.529C482.767 526.529 481.176 441.678 471.957 405.283Z" fill="#E0E0E0"/>
<path d="M483.693 528.981L466.597 528.759C465.52 528.706 464.457 529.023 463.585 529.659C458.63 533.571 460.899 533.688 455.279 534.692C448.537 535.905 451.862 542.686 456.83 542.764C465.046 542.894 464.368 542.594 471.37 542.699L478.985 542.764L479.989 540.534L481.293 542.764H483.302C483.531 542.763 483.758 542.715 483.968 542.621C484.178 542.527 484.365 542.39 484.519 542.22C484.673 542.049 484.789 541.848 484.86 541.629C484.931 541.411 484.955 541.18 484.932 540.951L483.693 528.981Z" fill="#FAFAFA"/>
<path d="M484.984 530.728C484.671 530.728 462.464 530.024 462.464 530.024L460.312 522.03L484.919 522.578L484.984 530.728Z" fill="#7E57C2"/>
<path d="M421.596 201.194C421.596 201.194 416.785 209.762 422.314 216.712C417.932 216.712 415.063 221.458 415.063 221.458C415.063 221.458 409.234 209.722 417.854 201.898C418.454 201.012 421.596 201.194 421.596 201.194Z" fill="#7E57C2"/>
<path d="M462.046 303.415C439.135 304.367 412.859 304.654 396.429 303.415C396.339 303.411 396.251 303.387 396.172 303.344C396.093 303.301 396.025 303.241 395.973 303.167C394.895 301.341 394.399 299.231 394.551 297.116C394.565 296.961 394.637 296.816 394.753 296.712C394.869 296.608 395.021 296.552 395.177 296.556C416.863 297.143 438.418 297.116 461.081 296.556C461.206 296.553 461.328 296.588 461.432 296.655C461.537 296.723 461.619 296.82 461.668 296.934C462.426 298.811 462.756 300.833 462.633 302.854C462.623 303.004 462.558 303.145 462.449 303.249C462.34 303.353 462.197 303.412 462.046 303.415Z" fill="#FAFAFA"/>
<path opacity="0.2" d="M462.046 303.415C439.135 304.367 412.859 304.654 396.429 303.415C396.339 303.411 396.251 303.387 396.172 303.344C396.093 303.301 396.025 303.241 395.973 303.167C394.895 301.341 394.399 299.231 394.551 297.116C394.565 296.961 394.637 296.816 394.753 296.712C394.869 296.608 395.021 296.552 395.177 296.556C416.863 297.143 438.418 297.116 461.081 296.556C461.206 296.553 461.328 296.588 461.432 296.655C461.537 296.723 461.619 296.82 461.668 296.934C462.426 298.811 462.756 300.833 462.633 302.854C462.623 303.004 462.558 303.145 462.449 303.249C462.34 303.353 462.197 303.412 462.046 303.415Z" fill="black"/>
<path d="M417.28 296.191C417.009 299.073 417.242 301.982 417.971 304.784C422.939 305.553 433.137 304.98 433.137 304.98C433.284 302.09 433.18 299.193 432.824 296.321C425 296.008 417.28 296.191 417.28 296.191Z" fill="white"/>
<path d="M463.09 217.403L463.833 218.068L464.42 218.616L465.528 219.685C466.245 220.389 466.897 221.093 467.562 221.811C468.866 223.232 470.105 224.705 471.279 226.192C473.623 229.136 475.8 232.209 477.799 235.398C481.692 241.698 484.98 248.352 487.618 255.271C487.97 256.197 488.244 256.758 488.739 258.336C489.132 259.613 489.411 260.922 489.574 262.248C489.814 264.569 489.783 266.91 489.483 269.224C488.922 273.211 487.871 277.113 486.353 280.843C484.965 284.304 483.335 287.663 481.476 290.896C479.655 294.073 477.62 297.123 475.386 300.024C474.722 300.876 473.778 301.465 472.72 301.686C471.663 301.906 470.562 301.745 469.612 301.231C468.663 300.716 467.927 299.881 467.534 298.875C467.142 297.868 467.12 296.756 467.471 295.734L467.549 295.513C469.811 289.39 471.654 283.121 473.065 276.748C473.705 273.901 474.037 270.994 474.056 268.076C474.059 266.946 473.919 265.82 473.639 264.725C473.319 263.733 472.881 262.783 472.335 261.895C469.46 256.13 466.197 250.567 462.568 245.243C460.782 242.635 458.878 240.027 456.922 237.654C455.944 236.428 454.927 235.268 453.922 234.12L452.41 232.464L451.68 231.695L451.341 231.343L451.119 231.134C449.291 229.545 448.169 227.295 448.001 224.879C447.832 222.463 448.63 220.078 450.219 218.251C451.808 216.423 454.058 215.301 456.475 215.132C458.891 214.964 461.275 215.762 463.103 217.351L463.09 217.403Z" fill="#57577E"/>
<path d="M451.849 206.11C462.007 207.871 472.126 219.972 478.164 231.212C474 238.239 467.764 243.805 460.312 247.147C460.312 247.147 448.393 235.542 443.634 227.04C438.874 218.537 442.291 204.454 451.849 206.11Z" fill="#7E57C2"/>
<path d="M477.812 228.643C478.736 229.731 479.456 230.977 479.937 232.321C477.329 236.233 471.148 246.573 459.843 248.595C458.76 247.964 457.94 246.964 457.534 245.778C457.534 245.778 470.587 239.571 477.812 228.643Z" fill="#FAFAFA"/>
<path d="M444.495 205.198C442.395 204.298 443.191 203.111 443.191 203.111C443.191 203.111 452.853 203.45 459.464 205.55C460.442 206.71 459.295 208.158 459.295 208.158C459.295 208.158 450.728 207.871 444.495 205.198Z" fill="#FAFAFA"/>
<path opacity="0.2" d="M441.965 202.85C441.965 202.85 439.774 210.492 429.76 216.725C434.141 216.725 437.075 224.718 437.075 224.718C437.075 224.718 446.203 213.999 444.09 203.424C443.478 202.485 441.965 202.85 441.965 202.85Z" fill="black"/>
<path d="M441.678 201.468C441.678 201.468 439.07 209.735 429.76 216.725C434.141 216.725 437.179 221.458 437.179 221.458C437.179 221.458 446.151 213.999 444.09 203.424C443.408 202.634 442.592 201.972 441.678 201.468V201.468Z" fill="#7E57C2"/>
<path d="M451.067 232.855C450.467 244.122 443.334 246.808 442.33 246.808C441.326 246.808 434.506 244.122 435.106 232.855L443.256 229.648L451.067 232.855Z" fill="white"/>
<path d="M468.619 294.834L460.586 301.746L471.24 308.67C471.24 308.67 477.76 301.524 474.526 297.456L468.619 294.834Z" fill="#57577E"/>
<path d="M459.686 312.712L463.82 314.499C464.618 314.846 465.513 314.899 466.346 314.648C467.179 314.398 467.897 313.859 468.371 313.13L471.24 308.67L460.586 301.746L457.808 307.809C457.605 308.254 457.492 308.734 457.476 309.223C457.461 309.712 457.543 310.199 457.718 310.655C457.893 311.112 458.157 311.529 458.495 311.882C458.833 312.235 459.238 312.518 459.686 312.712V312.712Z" fill="#57577E"/>
<path d="M414.281 155.346C407.122 156.324 409.521 158.593 425.482 160.627C441.443 162.661 445.446 161.057 445.446 161.057C445.446 161.057 427.112 155.306 414.281 155.346Z" fill="#FAFAFA"/>
<path d="M450.389 164.161C450.389 164.161 436.371 158.462 414.281 155.346C414.007 152.099 416.68 148.656 416.68 148.656C416.68 148.656 411.751 146.191 413.277 141.484C414.803 136.777 421.857 137.389 430.085 133.66C433.098 136.972 441.378 142.358 447.037 143.049C448.433 145.931 452.084 153.142 458.004 155.919C457.913 159.062 452.032 159.831 452.032 159.831C452.058 160.626 451.927 161.418 451.645 162.161C451.363 162.904 450.936 163.584 450.389 164.161V164.161Z" fill="#7E57C2"/>
<path opacity="0.3" d="M452.019 159.831C446.894 155.176 428.69 146.674 416.68 148.656C416.68 148.656 414.007 152.112 414.281 155.346C436.371 158.462 450.389 164.161 450.389 164.161C450.933 163.583 451.358 162.903 451.638 162.159C451.918 161.416 452.047 160.625 452.019 159.831V159.831Z" fill="black"/>
<path d="M432.198 143.231C430.62 151.264 425.143 152.711 424.374 152.633C423.604 152.555 418.91 150.182 420.462 142.201L426.76 140.454L432.198 143.231Z" fill="white"/>
<path d="M328.282 274.857C327.486 274.856 326.717 274.564 326.121 274.036C325.525 273.507 325.144 272.779 325.048 271.988L315.738 196.109C315.632 195.244 315.874 194.373 316.411 193.687C316.948 193.001 317.735 192.556 318.6 192.451C319.464 192.345 320.336 192.588 321.021 193.124C321.707 193.661 322.152 194.448 322.258 195.313L331.516 271.232C331.571 271.657 331.541 272.088 331.428 272.502C331.315 272.915 331.122 273.302 330.859 273.64C330.596 273.978 330.268 274.261 329.895 274.472C329.523 274.683 329.112 274.819 328.686 274.87L328.282 274.857Z" fill="#FAFAFA"/>
<path d="M326.209 240.718C325.413 237.797 326.913 237.367 325.465 233.22C324.696 231.017 327.226 229.308 327.539 231.082C328.712 237.537 337.28 241.149 334.307 245.23C331.333 249.312 326.991 243.639 326.209 240.718Z" fill="#57577E"/>
<path d="M384.326 131.426C386.884 90.6643 355.913 55.5477 315.152 52.9904C274.391 50.433 239.274 81.4034 236.717 122.165C234.16 162.926 265.13 198.042 305.891 200.6C346.652 203.157 381.769 172.187 384.326 131.426Z" fill="#7E57C2"/>
<path d="M366.797 146.727C377.813 115.636 361.54 81.5027 330.449 70.487C299.359 59.4712 265.225 75.7448 254.209 106.835C243.193 137.926 259.467 172.059 290.558 183.075C321.648 194.091 355.782 177.817 366.797 146.727Z" fill="white"/>
<path d="M349.302 116.695C344.399 110.071 334.958 116.695 332.129 123.658C331.36 125.386 330.855 127.219 330.629 129.096L327.513 107.828L325.048 87.6679C324.788 85.938 323.864 84.3776 322.471 83.3189C321.079 82.2602 319.328 81.7866 317.592 81.999C315.855 82.2114 314.27 83.0929 313.174 84.4561C312.078 85.8192 311.556 87.5564 311.721 89.2979L311.108 84.2775C311 83.4033 310.721 82.5589 310.287 81.7925C309.853 81.0262 309.272 80.3528 308.578 79.811C307.883 79.2691 307.089 78.8693 306.24 78.6344C305.391 78.3996 304.504 78.3342 303.63 78.4421C302.756 78.55 301.911 78.829 301.145 79.2632C300.379 79.6974 299.705 80.2783 299.163 80.9728C298.621 81.6672 298.222 82.4616 297.987 83.3105C297.752 84.1595 297.687 85.0463 297.794 85.9205L298.655 92.91C298.538 91.964 298.221 91.0537 297.726 90.2396C297.23 89.4256 296.566 88.7264 295.779 88.1886C294.992 87.6508 294.1 87.2866 293.161 87.1204C292.223 86.9542 291.259 86.9897 290.336 87.2245C288.754 87.6304 287.374 88.5977 286.452 89.9461C285.531 91.2944 285.131 92.9319 285.328 94.553L286.398 103.277C286.283 102.33 285.967 101.418 285.472 100.603C284.977 99.7881 284.313 99.088 283.525 98.5498C282.738 98.0117 281.845 97.6478 280.905 97.4825C279.966 97.3172 279.002 97.3543 278.078 97.5913C276.498 97.9946 275.12 98.9599 274.2 100.307C273.281 101.653 272.884 103.289 273.084 104.907L275.222 122.341L276.748 134.847L278.769 151.264C280.204 163 284.781 169.624 291.574 172.61C302.006 177.188 321.11 177.24 329.69 170.276C337.201 164.187 342.026 149.517 343.187 140.428C344.347 131.339 351.298 119.368 349.302 116.695Z" fill="#E0E0E0"/>
<path d="M360.573 75.2985L348.398 65.7829L260.445 178.317L272.62 187.832L360.573 75.2985Z" fill="#7E57C2"/>
<path d="M104.894 234.824V211.091H122.067V213.856H108.036V221.132H121.168V223.923H108.036V231.995H122.576V234.798L104.894 234.824Z" fill="#FAFAFA"/>
<path d="M126.553 234.824V217.625H129.161V220.233C129.601 219.306 130.232 218.484 131.013 217.82C131.558 217.434 132.21 217.229 132.878 217.233C133.947 217.263 134.986 217.593 135.877 218.185L134.873 220.885C134.23 220.485 133.491 220.269 132.734 220.259C132.116 220.249 131.513 220.451 131.026 220.832C130.502 221.234 130.119 221.791 129.93 222.423C129.602 223.528 129.44 224.675 129.448 225.827V234.824H126.553Z" fill="#FAFAFA"/>
<path d="M137.598 234.824V217.625H140.206V220.233C140.662 219.28 141.321 218.439 142.136 217.768C142.682 217.384 143.333 217.179 144.001 217.181C145.07 217.211 146.109 217.541 147 218.133L145.996 220.832C145.353 220.433 144.614 220.217 143.857 220.206C143.239 220.196 142.636 220.399 142.149 220.78C141.625 221.182 141.242 221.739 141.054 222.371C140.726 223.475 140.563 224.622 140.571 225.775V234.772L137.598 234.824Z" fill="#FAFAFA"/>
<path d="M147.587 226.231C147.587 223.049 148.456 220.689 150.195 219.15C151.694 217.863 153.618 217.18 155.593 217.233C156.67 217.195 157.743 217.383 158.742 217.785C159.742 218.187 160.646 218.794 161.396 219.567C162.176 220.435 162.777 221.449 163.165 222.55C163.552 223.651 163.717 224.818 163.652 225.983C163.733 227.777 163.389 229.564 162.648 231.199C162.001 232.45 160.992 233.477 159.753 234.146C158.481 234.853 157.048 235.217 155.593 235.202C154.514 235.246 153.438 235.063 152.434 234.666C151.43 234.268 150.521 233.665 149.764 232.894C148.193 231.044 147.411 228.652 147.587 226.231ZM150.586 226.231C150.453 227.997 150.963 229.752 152.02 231.173C152.472 231.688 153.028 232.101 153.652 232.384C154.276 232.667 154.954 232.813 155.639 232.813C156.324 232.813 157.001 232.667 157.625 232.384C158.249 232.101 158.806 231.688 159.257 231.173C160.33 229.719 160.844 227.928 160.705 226.127C160.829 224.395 160.314 222.679 159.257 221.302C158.805 220.788 158.248 220.377 157.624 220.096C157 219.814 156.323 219.668 155.639 219.668C154.954 219.668 154.278 219.814 153.654 220.096C153.03 220.377 152.473 220.788 152.02 221.302C150.966 222.719 150.456 224.469 150.586 226.231V226.231Z" fill="#FAFAFA"/>
<path d="M167.082 234.824V217.625H169.69V220.233C170.124 219.304 170.756 218.48 171.541 217.82C172.086 217.434 172.738 217.229 173.406 217.233C174.475 217.263 175.515 217.593 176.405 218.185L175.401 220.885C174.758 220.487 174.019 220.271 173.262 220.259C172.64 220.249 172.033 220.451 171.541 220.832C171.022 221.235 170.643 221.792 170.459 222.423C170.125 223.526 169.962 224.674 169.976 225.827V234.824H167.082Z" fill="#FAFAFA"/>
<path d="M115.73 264.308V261.778C115.149 262.696 114.341 263.448 113.383 263.962C112.426 264.476 111.352 264.735 110.266 264.712C109.292 264.719 108.328 264.519 107.437 264.125C106.663 263.82 105.984 263.316 105.467 262.665C105.026 262.01 104.72 261.274 104.568 260.5C104.43 259.599 104.373 258.686 104.398 257.775V247.108H107.306V256.64C107.273 257.67 107.334 258.7 107.489 259.718C107.646 260.441 108.058 261.085 108.649 261.53C109.295 261.977 110.068 262.206 110.853 262.182C111.719 262.185 112.57 261.955 113.318 261.517C114.048 261.1 114.621 260.454 114.948 259.679C115.308 258.6 115.467 257.464 115.417 256.327V247.108H118.338V264.308H115.73Z" fill="#FAFAFA"/>
<path d="M122.902 264.308V247.108H125.51V249.546C126.097 248.639 126.912 247.9 127.872 247.404C128.833 246.907 129.906 246.67 130.987 246.717C131.967 246.702 132.94 246.893 133.843 247.277C134.615 247.577 135.292 248.082 135.799 248.738C136.245 249.391 136.555 250.127 136.711 250.903C136.842 251.84 136.894 252.786 136.868 253.732V264.308H133.96V253.876C133.995 252.992 133.876 252.11 133.608 251.268C133.38 250.675 132.957 250.179 132.408 249.859C131.792 249.498 131.087 249.317 130.374 249.338C129.192 249.318 128.045 249.736 127.153 250.511C126.253 251.307 125.849 252.806 125.849 255.01V264.399L122.902 264.308Z" fill="#FAFAFA"/>
<path d="M152.568 262.182C151.645 263.006 150.586 263.663 149.438 264.125C148.413 264.512 147.326 264.706 146.231 264.699C144.655 264.801 143.098 264.303 141.875 263.304C141.377 262.862 140.983 262.317 140.719 261.707C140.455 261.096 140.329 260.435 140.35 259.77C140.342 258.986 140.528 258.213 140.893 257.519C141.257 256.825 141.787 256.232 142.436 255.793C143.076 255.355 143.786 255.029 144.535 254.828C145.396 254.634 146.266 254.491 147.143 254.397C148.911 254.236 150.658 253.9 152.359 253.393C152.359 252.989 152.359 252.741 152.359 252.624C152.407 252.172 152.359 251.715 152.218 251.284C152.076 250.852 151.844 250.456 151.538 250.12C150.59 249.391 149.405 249.038 148.213 249.129C147.15 249.052 146.09 249.303 145.174 249.846C144.403 250.521 143.892 251.443 143.727 252.454L140.884 252.063C141.077 250.991 141.524 249.98 142.188 249.116C142.872 248.298 143.778 247.696 144.796 247.382C146.055 246.953 147.379 246.745 148.708 246.769C149.925 246.727 151.14 246.903 152.294 247.291C153.07 247.542 153.767 247.991 154.315 248.595C154.775 249.172 155.088 249.852 155.228 250.577C155.346 251.467 155.394 252.365 155.372 253.263V257.175C155.328 258.916 155.389 260.657 155.554 262.391C155.688 263.114 155.939 263.809 156.297 264.451H153.246C152.875 263.746 152.644 262.975 152.568 262.182V262.182ZM152.32 255.662C150.781 256.208 149.184 256.575 147.561 256.758C146.671 256.848 145.795 257.045 144.953 257.344C144.483 257.539 144.083 257.87 143.805 258.296C143.535 258.706 143.394 259.188 143.401 259.679C143.394 260.047 143.468 260.412 143.62 260.748C143.771 261.084 143.994 261.382 144.275 261.622C145.016 262.198 145.946 262.477 146.883 262.404C147.93 262.423 148.964 262.167 149.882 261.661C150.72 261.205 151.395 260.498 151.812 259.639C152.173 258.714 152.333 257.723 152.281 256.732L152.32 255.662Z" fill="#FAFAFA"/>
<path d="M171.072 264.308V261.778C170.49 262.696 169.682 263.448 168.725 263.962C167.768 264.476 166.694 264.735 165.608 264.712C164.63 264.718 163.661 264.518 162.765 264.125C161.997 263.817 161.323 263.313 160.809 262.665C160.357 262.016 160.05 261.278 159.909 260.5C159.765 259.599 159.704 258.687 159.727 257.775V247.108H162.648V256.64C162.615 257.67 162.676 258.7 162.83 259.718C162.988 260.441 163.399 261.085 163.991 261.53C164.637 261.977 165.409 262.206 166.195 262.182C167.061 262.185 167.912 261.955 168.659 261.517C169.39 261.1 169.962 260.454 170.289 259.679C170.649 258.6 170.809 257.464 170.759 256.327V247.108H173.68V264.308H171.072Z" fill="#FAFAFA"/>
<path d="M184.607 261.7L185.038 264.308C184.315 264.474 183.576 264.561 182.834 264.568C181.984 264.612 181.136 264.442 180.369 264.073C179.828 263.781 179.394 263.324 179.13 262.769C178.824 261.653 178.705 260.494 178.778 259.339V249.442H176.64V247.108H178.778V242.844L181.673 241.096V247.108H184.607V249.377H181.673V259.496C181.638 260.035 181.691 260.577 181.83 261.1C181.933 261.338 182.111 261.535 182.338 261.661C182.642 261.823 182.985 261.9 183.329 261.882C183.759 261.852 184.186 261.791 184.607 261.7V261.7Z" fill="#FAFAFA"/>
<path d="M187.463 264.308V240.562H190.384V249.064C191.01 248.308 191.798 247.704 192.69 247.295C193.582 246.886 194.554 246.684 195.535 246.704C196.689 246.673 197.833 246.933 198.86 247.46C199.744 247.91 200.454 248.638 200.881 249.533C201.349 250.782 201.553 252.114 201.481 253.445V264.347H198.573V253.445C198.671 252.303 198.33 251.165 197.621 250.264C197.267 249.92 196.846 249.655 196.383 249.484C195.92 249.313 195.427 249.241 194.935 249.273C194.077 249.272 193.235 249.502 192.497 249.938C191.771 250.351 191.202 250.993 190.88 251.763C190.51 252.777 190.342 253.854 190.384 254.932V264.347L187.463 264.308Z" fill="#FAFAFA"/>
<path d="M204.819 255.701C204.819 252.52 205.689 250.164 207.427 248.634C208.931 247.345 210.86 246.662 212.839 246.717C213.923 246.677 215.003 246.866 216.009 247.27C217.015 247.674 217.926 248.285 218.681 249.064C219.463 249.933 220.065 250.949 220.452 252.053C220.839 253.156 221.004 254.325 220.937 255.493C221.017 257.285 220.677 259.071 219.946 260.709C219.298 261.967 218.284 262.999 217.038 263.669C215.77 264.374 214.341 264.737 212.891 264.725C211.809 264.77 210.729 264.587 209.723 264.187C208.716 263.787 207.805 263.18 207.049 262.404C205.448 260.553 204.646 258.143 204.819 255.701ZM207.819 255.701C207.686 257.472 208.195 259.231 209.253 260.656C209.699 261.184 210.257 261.605 210.886 261.889C211.516 262.173 212.201 262.313 212.891 262.3C213.579 262.313 214.261 262.171 214.886 261.884C215.512 261.597 216.064 261.173 216.503 260.643C217.568 259.191 218.077 257.405 217.938 255.61C218.062 253.875 217.547 252.154 216.49 250.772C216.039 250.257 215.482 249.844 214.858 249.561C214.234 249.278 213.557 249.132 212.872 249.132C212.186 249.132 211.509 249.278 210.885 249.561C210.261 249.844 209.705 250.257 209.253 250.772C208.193 252.187 207.683 253.939 207.819 255.701V255.701Z" fill="#FAFAFA"/>
<path d="M224.288 264.308V247.108H226.896V249.716C227.327 248.785 227.96 247.961 228.748 247.304C229.293 246.918 229.945 246.713 230.612 246.717C231.681 246.742 232.72 247.067 233.612 247.656L232.608 250.368C231.968 249.96 231.228 249.738 230.469 249.729C229.851 249.723 229.25 249.925 228.761 250.303C228.24 250.707 227.858 251.263 227.665 251.894C227.338 252.998 227.176 254.145 227.183 255.297V264.308H224.288Z" fill="#FAFAFA"/>
<path d="M235.411 243.913V240.562H238.332V243.913H235.411ZM235.411 264.308V247.108H238.332V264.308H235.411Z" fill="#FAFAFA"/>
<path d="M241.24 264.308V261.948L252.194 249.377C250.89 249.377 249.846 249.468 248.908 249.468H241.892V247.108H255.949V249.064L246.639 259.978L244.839 261.974C246.143 261.869 247.369 261.817 248.516 261.817H256.471V264.334L241.24 264.308Z" fill="#FAFAFA"/>
<path d="M271.128 258.766L274.14 259.144C273.757 260.764 272.838 262.207 271.532 263.238C270.099 264.255 268.371 264.768 266.616 264.699C265.51 264.756 264.404 264.577 263.372 264.175C262.341 263.772 261.406 263.155 260.63 262.365C259.061 260.568 258.264 258.225 258.414 255.845C258.263 253.392 259.067 250.977 260.657 249.103C261.392 248.311 262.291 247.686 263.29 247.272C264.289 246.858 265.365 246.664 266.446 246.704C267.501 246.668 268.55 246.859 269.524 247.264C270.499 247.669 271.374 248.278 272.093 249.051C273.64 250.894 274.42 253.261 274.27 255.662C274.27 255.832 274.27 256.093 274.27 256.445H261.439C261.444 258.032 262.012 259.566 263.043 260.774C263.503 261.264 264.062 261.652 264.682 261.913C265.302 262.173 265.969 262.301 266.642 262.287C267.623 262.312 268.585 262.014 269.38 261.439C270.21 260.736 270.817 259.807 271.128 258.766V258.766ZM261.556 254.058H271.154C271.122 252.887 270.741 251.751 270.058 250.798C269.627 250.258 269.077 249.825 268.45 249.533C267.823 249.241 267.137 249.098 266.446 249.116C265.824 249.095 265.205 249.199 264.624 249.423C264.044 249.647 263.515 249.986 263.069 250.42C262.117 251.394 261.575 252.696 261.556 254.058V254.058Z" fill="#FAFAFA"/>
<path d="M288.953 264.308V262.104C288.462 262.933 287.755 263.613 286.908 264.072C286.06 264.531 285.104 264.752 284.142 264.712C282.796 264.718 281.48 264.323 280.36 263.577C279.19 262.792 278.264 261.694 277.687 260.409C277.037 258.94 276.717 257.346 276.748 255.74C276.727 254.139 277.019 252.548 277.609 251.059C278.116 249.74 279.029 248.617 280.217 247.851C281.356 247.108 282.69 246.718 284.05 246.73C285.016 246.714 285.97 246.938 286.828 247.382C287.602 247.799 288.274 248.383 288.797 249.09V240.575H291.705V264.321L288.953 264.308ZM279.747 255.727C279.61 257.482 280.1 259.229 281.129 260.656C281.518 261.16 282.016 261.569 282.585 261.854C283.154 262.138 283.779 262.291 284.415 262.3C285.04 262.303 285.657 262.163 286.22 261.892C286.782 261.621 287.276 261.225 287.662 260.735C288.651 259.349 289.113 257.657 288.966 255.962C289.137 254.126 288.678 252.286 287.662 250.746C287.27 250.229 286.764 249.811 286.182 249.523C285.6 249.236 284.96 249.087 284.311 249.09C283.683 249.084 283.063 249.225 282.499 249.501C281.935 249.777 281.444 250.181 281.064 250.681C280.061 252.163 279.596 253.944 279.747 255.727V255.727Z" fill="#FAFAFA"/>
</g>
<defs>
<clipPath id="clip0">
<rect width="652" height="652" fill="white"/>
</clipPath>
</defs>
</svg>
